<?xml version="1.0" encoding="UTF-8"?>
<svg xmlns="http://www.w3.org/2000/svg" viewBox="0 0 112 28">
  <defs>
    <style>
      .cls-1 {
        fill: #fff;
      }
    </style>
  </defs>
  <rect class="cls-1" width="112" height="28"/>
  <g id="Calque_1" data-name="Calque 1">
    <g>
      <g>
        <path d="M44.01,11.67c.74,0,1.35-.61,1.35-1.39v-3.73c0-.74-.61-1.35-1.35-1.35h-2.43v6.47h2.43Z"/>
        <path d="M43.1,20.48c-1.78-.26-2.26-1.35-2.26-2.86v-5.94h0V2.17c0-.95-.74-1.69-1.69-1.69h-3.38c-.95,0-1.69.74-1.69,1.69v3.04h0v6.47h0v6.94c0,6.12,3.17,8.51,8.42,8.68,1,.04,1.78-.74,1.78-1.69v-3.78c0-.69-.48-1.26-1.17-1.35Z"/>
      </g>
      <path d="M31.12,5.07h-3.38c-.91,0-1.69.78-1.69,1.69v.43c-1.47-1.69-3.6-2.77-6.46-2.77-6.11,0-10.62,5.16-10.62,11.53,0,.06,0,.11,0,.17.08,6.34,4.56,11.4,10.61,11.4,2.86,0,4.98-1.08,6.46-2.82v.48c0,.91.78,1.69,1.69,1.69h3.38c.95,0,1.69-.78,1.69-1.69V6.76c0-.91-.74-1.69-1.69-1.69ZM20.89,20.76c-2.68,0-5.06-1.92-5.15-4.64,0-.06,0-.11,0-.17,0-2.77,2.43-4.77,5.16-4.77s5.16,1.99,5.16,4.77c0,.06,0,.11,0,.17-.09,2.73-2.48,4.64-5.15,4.64Z"/>
      <path d="M95.28,4.97c-3.23,0-5.25,1.38-6.5,3.4,0,0,0,0,0,0-1.33-2.24-3.57-3.4-6.37-3.4-2.32,0-3.96.73-5.08,1.89,0-.69-.56-1.25-1.25-1.25h-3.79c-.95,0-1.68.77-1.68,1.68v18.29c0,.9.73,1.68,1.68,1.68h3.36c.9,0,1.68-.77,1.68-1.68v-10.15c0-2.28,1.25-3.74,3.1-3.74s3.01,1.55,3.01,3.74v10.15c0,.9.77,1.68,1.68,1.68h3.4c.9,0,1.68-.77,1.68-1.68v-10.15c0-.36.03-.69.09-1,.32-1.7,1.44-2.74,3.01-2.74,1.81,0,3.01,1.55,3.01,3.74v10.15c0,.9.77,1.68,1.68,1.68h3.36c.95,0,1.68-.77,1.68-1.68v-11.49c0-5.94-3.14-9.12-7.75-9.12Z"/>
      <path d="M57.69,4.05c-3.17,0-6.04,1.24-8.15,3.27-2.21,2.13-3.59,5.11-3.59,8.42,0,.04,0,.08,0,.13.07,6.45,5.27,11.61,11.73,11.61,3.99,0,7.52-1.99,9.64-5.04,1.3-1.86,2.07-4.12,2.09-6.57,0-.04,0-.08,0-.13,0-6.46-5.27-11.69-11.74-11.69ZM57.69,20.62c-2.64,0-4.81-2.09-4.87-4.75,0-.04,0-.08,0-.13,0-2.68,2.2-4.84,4.88-4.84s4.88,2.15,4.88,4.84c0,.04,0,.08,0,.13-.07,2.66-2.23,4.75-4.87,4.75Z"/>
    </g>
  </g>
</svg>