<?xml version="1.0" encoding="UTF-8"?>
<svg version="1.1" xmlns="http://www.w3.org/2000/svg" width="500" height="272">
<path d="M0 0 C14.98039018 11.5411836 20.90199538 32.63069223 26 50 C32.28985166 48.87595807 38.56039083 47.70535287 44.80859375 46.3671875 C47 46 47 46 51 46 C51.37125 45.1028125 51.37125 45.1028125 51.75 44.1875 C53.30248374 41.47065346 54.16075005 40.38322433 57 39 C60.92998657 38.8789678 64.63316395 38.90052309 67.77734375 41.4296875 C69 43 69 43 69 45 C70.27875 45.0825 71.5575 45.165 72.875 45.25 C80.21092265 46.07153077 87.77310481 48.6193726 93 54 C95.6246125 57.73159192 97.54166556 61.41665555 98 66 C98.103125 66.99 98.20625 67.98 98.3125 69 C97.8906288 88.49044966 83.22393561 104.46041563 70.84765625 117.90625 C68.86054661 120.06333263 68.86054661 120.06333263 67 123 C67.40089844 123.37769531 67.80179688 123.75539062 68.21484375 124.14453125 C81.96209604 137.45536284 96.94742604 155.94824706 98.25 175.8125 C98.1193872 182.76110107 95.47308966 188.36605169 90.80859375 193.4609375 C80.24362551 202.45142884 63.87817086 200.80955239 51 200 C44.8823116 199.22258114 38.88902624 197.91349912 32.90087891 196.45751953 C30.61257109 195.90675035 28.31193865 195.44014864 26 195 C25.2053846 197.49909575 24.41425597 199.99921143 23.625 202.5 C23.40328125 203.19609375 23.1815625 203.8921875 22.953125 204.609375 C19.62493973 213.98289959 19.62493973 213.98289959 19.5625 223.6875 C19.959226 226.6102156 20.02176373 227.93004517 19.125 230.8125 C16.43242704 233.58426628 13.67235723 234.55356704 10.125 235.98046875 C7.21269481 237.37773282 5.95625738 239.45093735 4 242 C-3.94763229 248.21816413 -9.78045641 251.16526906 -20 250 C-31.59723433 246.25733248 -38.31506364 237.46160023 -43.95751953 227.07958984 C-48.83570066 217.34836107 -55 205.04466466 -55 194 C-55.88300781 194.26554688 -56.76601562 194.53109375 -57.67578125 194.8046875 C-59.47595703 195.33449219 -59.47595703 195.33449219 -61.3125 195.875 C-62.48425781 196.22304687 -63.65601563 196.57109375 -64.86328125 196.9296875 C-74.10164446 199.42775193 -83.0041243 200.34169479 -92.5625 200.3125 C-93.62146484 200.32861328 -94.68042969 200.34472656 -95.77148438 200.36132812 C-105.27695037 200.36718485 -113.83088516 198.93633667 -121.3046875 192.703125 C-126.35525194 187.62928607 -127.2799779 182.84202914 -127.5625 175.75 C-127.338526 168.21700775 -125.50868157 162.60667777 -122 156 C-121.50371094 155.02546875 -121.00742188 154.0509375 -120.49609375 153.046875 C-114.48828447 141.98671527 -106.06294138 132.66014399 -97 124 C-98.69064586 119.71563036 -101.81355305 116.77624401 -104.9375 113.5 C-106.01085507 112.36622854 -107.08251789 111.23085221 -108.15234375 110.09375 C-108.90511597 109.29517578 -108.90511597 109.29517578 -109.6730957 108.48046875 C-111 107 -111 107 -112.6640625 104.65625 C-114.78600737 102.02553472 -117.81844448 101.89306822 -121 101 C-123.21484375 99.33203125 -123.21484375 99.33203125 -125 97 C-125.3203125 94.01171875 -125.3203125 94.01171875 -125.125 90.6875 C-124.84822963 85.60334866 -125.59110759 81.87487489 -127 77 C-127.30078125 73.24609375 -127.30078125 73.24609375 -127.3125 69.4375 C-127.32925781 68.17808594 -127.34601563 66.91867188 -127.36328125 65.62109375 C-126.6642932 58.65376127 -123.36664989 54.85108697 -118.18359375 50.54296875 C-106.44132462 42.24565872 -89.1410322 44.03497855 -75.6875 46.3125 C-68.71320352 47.55152337 -61.82873946 49.11205439 -55 51 C-54.92523438 50.46375 -54.85046875 49.9275 -54.7734375 49.375 C-51.76655548 31.45162482 -43.32928077 11.02455945 -28.9375 -0.5 C-19.78500086 -6.77346057 -9.05436685 -6.16911787 0 0 Z M-27.015625 8.7421875 C-38.47686733 20.69978285 -44.94196723 37.93272379 -48 54 C-47.20303711 54.32274902 -46.40607422 54.64549805 -45.58496094 54.97802734 C-42.61747603 56.18067606 -39.65058419 57.38477321 -36.68408203 58.58984375 C-35.40209006 59.11027876 -34.11986595 59.63014235 -32.83740234 60.14941406 C-30.98994425 60.89757009 -29.14339884 61.64797861 -27.296875 62.3984375 C-26.18666992 62.84880371 -25.07646484 63.29916992 -23.93261719 63.76318359 C-21 65 -21 65 -18.98144531 66.22509766 C-14.39913243 68.0171456 -9.6119988 65.60324224 -5.33984375 63.78515625 C-3.7784668 63.12676758 -3.7784668 63.12676758 -2.18554688 62.45507812 C-1.11369141 61.99552734 -0.04183594 61.53597656 1.0625 61.0625 C3.19915375 60.15739862 5.33587025 59.25244536 7.47265625 58.34765625 C8.41375244 57.94554932 9.35484863 57.54344238 10.32446289 57.12915039 C12.87119304 56.05436009 15.43003284 55.01779436 18 54 C14.37790842 37.22399688 8.34014125 16.80377157 -6 6 C-13.97510249 1.33944432 -20.3150106 2.95057118 -27.015625 8.7421875 Z M-117 60 C-120.05143215 64.58257782 -120.18225446 68.47322444 -119.25 73.8125 C-118.63194018 76.62150266 -117.91012976 79.26961073 -117 82 C-115.19649042 82.90980011 -115.19649042 82.90980011 -113.0625 83.5 C-109.58020975 84.56175093 -109.1577569 84.76336466 -107 88 C-107.12109375 90.09375 -107.12109375 90.09375 -107.4375 92.5 C-107.5738711 98.73670508 -104.56184554 101.88494071 -100.53515625 106.37109375 C-99.69855469 107.23863281 -98.86195313 108.10617188 -98 109 C-97.21496094 109.81597656 -96.42992187 110.63195312 -95.62109375 111.47265625 C-93.77416846 113.34601339 -91.90620919 115.18728336 -90 117 C-83.98177679 112.57844825 -78.1553712 107.94626709 -72.36889648 103.22753906 C-71.43799194 102.4748877 -71.43799194 102.4748877 -70.48828125 101.70703125 C-69.66130737 101.03377808 -69.66130737 101.03377808 -68.81762695 100.34692383 C-67 99 -67 99 -64.36499023 97.75976562 C-61.70881718 96.15009763 -61.70881718 96.15009763 -61.08105469 92.90893555 C-60.94602539 91.664104 -60.81099609 90.41927246 -60.671875 89.13671875 C-60.55286835 88.13231499 -60.55286835 88.13231499 -60.43145752 87.10762024 C-60.18280257 84.96937122 -59.96579267 82.82929043 -59.75 80.6875 C-59.59066989 79.25822469 -59.42923337 77.82918253 -59.265625 76.40039062 C-58.96418975 73.76095346 -58.67766058 71.12160206 -58.40136719 68.47924805 C-58.03401375 65.29484787 -57.55801085 62.15590846 -57 59 C-60.35288912 58.18216722 -63.70751977 57.37170786 -67.0625 56.5625 C-68.00544922 56.33240234 -68.94839844 56.10230469 -69.91992188 55.86523438 C-84.60891567 52.33373412 -104.63984132 48.84571046 -117 60 Z M69 53 C68.62875 53.639375 68.2575 54.27875 67.875 54.9375 C65.25413827 57.82044791 62.98131169 57.89550087 59.19140625 58.1875 C57 58 57 58 54.5625 56 C51.64609212 53.72377922 51.09731625 53.72455977 47.5625 54 C40.88185024 54.9601539 34.43231092 57.0072812 28 59 C28.71704541 66.47017703 29.53956721 73.92446021 30.4375 81.375 C30.62022461 82.97408203 30.62022461 82.97408203 30.80664062 84.60546875 C30.93103516 85.63027344 31.05542969 86.65507813 31.18359375 87.7109375 C31.29243896 88.63181152 31.40128418 89.55268555 31.51342773 90.50146484 C32.57565187 95.95595645 34.97686459 98.00298916 39.4375 101.1875 C40.51980147 101.97179317 41.60049249 102.75831278 42.6796875 103.546875 C43.22979492 103.94841797 43.77990234 104.34996094 44.34667969 104.76367188 C47.91072846 107.42881407 51.30333063 110.30541626 54.72265625 113.15234375 C57.05997757 115.1074887 57.05997757 115.1074887 60 117 C73.52324212 104.32638566 89.39886879 87.97280646 90.16796875 68.375 C89.839379 63.72889384 88.05462573 61.11854244 84.9375 57.8125 C80.14043946 54.85261158 74.66396266 53 69 53 Z M-50 62 C-50.67063095 65.93683554 -51.33582501 69.87457057 -52 73.8125 C-52.19078125 74.93205078 -52.3815625 76.05160156 -52.578125 77.20507812 C-52.75859375 78.27822266 -52.9390625 79.35136719 -53.125 80.45703125 C-53.29257813 81.44678955 -53.46015625 82.43654785 -53.6328125 83.45629883 C-54.07143541 86.06652624 -54.07143541 86.06652624 -54 89 C-49.58650102 87.42495361 -45.7220743 85.13258706 -41.75 82.6875 C-36.23266882 79.33067933 -30.6857683 76.06630865 -25 73 C-25 72.34 -25 71.68 -25 71 C-28.78951244 69.49451631 -32.58195031 67.99654686 -36.375 66.5 C-37.99535156 65.85611328 -37.99535156 65.85611328 -39.6484375 65.19921875 C-40.6796875 64.79316406 -41.7109375 64.38710937 -42.7734375 63.96875 C-43.72653809 63.59169922 -44.67963867 63.21464844 -45.66162109 62.82617188 C-47.9009545 61.88895698 -47.9009545 61.88895698 -50 62 Z M8.0625 65.8125 C7.14275391 66.16892578 6.22300781 66.52535156 5.27539062 66.89257812 C3.94991211 67.41948242 3.94991211 67.41948242 2.59765625 67.95703125 C1.78820557 68.27647705 0.97875488 68.59592285 0.14477539 68.92504883 C-2.04481719 70.02246216 -3.38795713 71.17570103 -5 73 C-4.43079834 73.30703857 -3.86159668 73.61407715 -3.27514648 73.93041992 C-0.65996631 75.34464094 1.95126442 76.76600977 4.5625 78.1875 C5.45775391 78.67025391 6.35300781 79.15300781 7.27539062 79.65039062 C11.35145736 81.87505708 15.28229709 84.11057 19.02734375 86.86328125 C21.66051508 89.19455268 21.66051508 89.19455268 24 89 C23.55194549 79.69900635 22.15662766 71.04698522 20 62 C15.87234988 62 11.85282188 64.3021903 8.0625 65.8125 Z M-21.89453125 79.4921875 C-22.84376465 80.02690674 -23.79299805 80.56162598 -24.77099609 81.11254883 C-28.89038323 83.49959777 -33.00252326 85.89813071 -37.10107422 88.32080078 C-39.64352893 89.79351457 -42.20933235 91.17402376 -44.81640625 92.52734375 C-52.19572322 96.52004597 -52.19572322 96.52004597 -56.12890625 103.71875 C-56.53016303 107.18861382 -56.41225645 110.56941415 -56.13916016 114.04541016 C-55.93816538 116.86850525 -56.05123643 119.67239658 -56.125 122.5 C-56.09516836 124.66686193 -56.05259538 126.83357108 -56 129 C-55.99274902 129.67691895 -55.98549805 130.35383789 -55.97802734 131.05126953 C-55.94921177 133.22318207 -55.88476379 135.39163675 -55.8125 137.5625 C-55.80686035 138.24183594 -55.8012207 138.92117187 -55.79541016 139.62109375 C-55.64678091 142.89257951 -55.32882974 144.64649135 -53.07421875 147.0703125 C-51.55248047 148.02550781 -51.55248047 148.02550781 -50 149 C-49.28432861 149.4643042 -48.56865723 149.9286084 -47.83129883 150.40698242 C-41.63343234 154.39700143 -35.30955213 158.19005194 -29 162 C-27.93483154 162.65210449 -27.93483154 162.65210449 -26.84814453 163.31738281 C-25.09991017 164.38020186 -23.33204337 165.41055113 -21.5625 166.4375 C-20.14130859 167.27087891 -20.14130859 167.27087891 -18.69140625 168.12109375 C-14.9727438 169.33546102 -13.55155675 168.62369121 -10 167 C-6.82983278 165.36781697 -3.72336123 163.63913869 -0.625 161.875 C0.20644531 161.40707031 1.03789062 160.93914062 1.89453125 160.45703125 C3.93234954 159.30929451 5.96735569 158.15686718 8 157 C8 156.01 8 155.02 8 154 C-4.35035528 147.25262617 -4.35035528 147.25262617 -18 147 C-18.71285156 146.76539063 -19.42570312 146.53078125 -20.16015625 146.2890625 C-24.63022384 145.8340625 -27.88917727 147.94788537 -31.8125 149.9375 C-32.99489258 150.51661133 -32.99489258 150.51661133 -34.20117188 151.10742188 C-36.14020354 152.05931015 -38.07095465 153.02803338 -40 154 C-40.495 151.03 -40.495 151.03 -41 148 C-38.36 146.68 -35.72 145.36 -33 144 C-33 143.34 -33 142.68 -33 142 C-35.1700263 140.40773752 -37.44632228 139.04268098 -39.73828125 137.6328125 C-42.04362885 135.96850283 -43.42820049 134.35006916 -45 132 C-38.50575165 132.23875913 -33.41207122 132.87025647 -27.71484375 136.07421875 C-25.50150621 137.26911852 -23.50025626 137.78569232 -21 138 C-20.01 137.67 -19.02 137.34 -18 137 C-14.31617231 136.86843473 -11.50946415 136.83017862 -8 138 C-5.25743646 137.2807107 -5.25743646 137.2807107 -2.375 136.125 C-1.39273438 135.75632813 -0.41046875 135.38765625 0.6015625 135.0078125 C2.91069964 134.21529079 2.91069964 134.21529079 4 133 C5.85287502 132.92773498 7.70833878 132.9161878 9.5625 132.9375 C10.57441406 132.94652344 11.58632813 132.95554688 12.62890625 132.96484375 C13.41136719 132.97644531 14.19382812 132.98804688 15 133 C6.738041 140.48291572 6.738041 140.48291572 2 143 C5.36423277 145.96052484 8.69159287 146.92289822 13 148 C12.2265625 149.175625 12.2265625 149.175625 11.4375 150.375 C10.963125 151.24125 10.48875 152.1075 10 153 C10.33 153.66 10.66 154.32 11 155 C13.33944513 153.72311575 15.6388835 152.40950267 17.9375 151.0625 C18.59685547 150.70865234 19.25621094 150.35480469 19.93554688 149.99023438 C22.58154418 148.40263599 24.57784047 147.15922134 25.66015625 144.18725586 C25.97641927 141.76586713 26.01503813 139.4429333 26 137 C26.02344482 135.90679443 26.04688965 134.81358887 26.07104492 133.68725586 C26.13489589 129.93620099 26.13640864 126.18904155 26.125 122.4375 C26.12886719 121.16197266 26.13273437 119.88644531 26.13671875 118.57226562 C26.869384 107.69897904 26.869384 107.69897904 23.3125 98.0390625 C22.549375 97.57242188 21.78625 97.10578125 21 96.625 C20.10152344 96.06167969 19.20304687 95.49835938 18.27734375 94.91796875 C17.19582031 94.28503906 16.11429687 93.65210937 15 93 C13.64655248 92.18456051 12.29372598 91.36808969 10.94140625 90.55078125 C6.65728967 87.98137304 2.33365242 85.48464142 -2 83 C-3.12148438 82.34902344 -4.24296875 81.69804688 -5.3984375 81.02734375 C-6.36007812 80.48207031 -7.32171875 79.93679687 -8.3125 79.375 C-9.13363281 78.90835938 -9.95476562 78.44171875 -10.80078125 77.9609375 C-15.2239921 76.02823791 -17.98275937 77.27123856 -21.89453125 79.4921875 Z M-70.1875 111.1875 C-71.32663524 112.16037605 -72.46595727 113.13303341 -73.60546875 114.10546875 C-74.16540527 114.58419434 -74.7253418 115.06291992 -75.30224609 115.55615234 C-77.85158147 117.72422387 -80.42493498 119.8625788 -83 122 C-81.61073045 126.16780866 -78.62342646 127.92554297 -75.25 130.5 C-74.62867188 130.98597656 -74.00734375 131.47195312 -73.3671875 131.97265625 C-69.98230804 134.59343845 -66.70637164 136.77617702 -63 139 C-63 128.11 -63 117.22 -63 106 C-65.44024174 106 -68.31338542 109.57786907 -70.1875 111.1875 Z M33 106 C33 116.89 33 127.78 33 139 C38.7563857 135.79698688 38.7563857 135.79698688 43.74609375 131.984375 C44.6597168 131.19160156 44.6597168 131.19160156 45.59179688 130.3828125 C46.20087891 129.84398437 46.80996094 129.30515625 47.4375 128.75 C48.07365234 128.19570312 48.70980469 127.64140625 49.36523438 127.0703125 C50.91478214 125.71882723 52.45805959 124.36015825 54 123 C50.02520978 118.8480389 45.75081997 115.2560692 41.25 111.6875 C40.56550781 111.13771484 39.88101563 110.58792969 39.17578125 110.02148438 C36.37280944 107.33869358 36.37280944 107.33869358 33 106 Z M-93.56640625 131.3515625 C-94.57629201 132.43236198 -95.57425778 133.5243756 -96.5625 134.625 C-97.09045166 135.20749512 -97.61840332 135.78999023 -98.16235352 136.39013672 C-108.33404478 147.82432066 -118.86129981 161.16664496 -120 177 C-119.48757599 181.39220577 -118.28492047 184.11519607 -115.25 187.25 C-106.48832585 193.98835971 -93.87781144 193.71588864 -83.4296875 192.37451172 C-76.42199732 191.29434726 -69.48168953 189.81181869 -62.56640625 188.25390625 C-61.70990479 188.06127197 -60.85340332 187.8686377 -59.97094727 187.67016602 C-57.80232681 187.19035845 -57.80232681 187.19035845 -57 185 C-57.17900751 183.22095202 -57.44076337 181.44994117 -57.7421875 179.6875 C-57.92136719 178.61113281 -58.10054687 177.53476563 -58.28515625 176.42578125 C-58.47980469 175.29527344 -58.67445313 174.16476563 -58.875 173 C-59.25030699 170.79215956 -59.62273934 168.58382838 -59.9921875 166.375 C-60.2720752 164.75924072 -60.2720752 164.75924072 -60.55761719 163.11083984 C-60.96618922 160.23775772 -61.0683483 157.49753461 -61.1328125 154.6015625 C-61.49750292 150.65141462 -62.47589969 149.02272166 -65.5 146.4609375 C-66.97917263 145.40256112 -68.48050987 144.37463093 -70 143.375 C-71.55672949 142.27763065 -73.11143502 141.17738425 -74.6640625 140.07421875 C-75.41333008 139.55263184 -76.16259766 139.03104492 -76.93457031 138.49365234 C-80.32980362 136.03832877 -83.328041 133.19900421 -86.3359375 130.29296875 C-89.47486861 127.85403402 -90.81218818 128.82791063 -93.56640625 131.3515625 Z M59 129 C58.03513672 129.80050781 58.03513672 129.80050781 57.05078125 130.6171875 C51.74136615 134.99499339 46.38696775 139.29820379 40.9375 143.5 C40.09795776 144.1494458 40.09795776 144.1494458 39.24145508 144.81201172 C35.24789361 147.87605319 35.24789361 147.87605319 33 149 C32.40480151 151.36152118 32.40480151 151.36152118 32.0625 154.3125 C31.90265625 155.47394531 31.7428125 156.63539063 31.578125 157.83203125 C31.48982422 158.4863916 31.40152344 159.14075195 31.31054688 159.81494141 C30.96286545 162.26128478 30.57012602 164.69810702 30.171875 167.13671875 C30.02999756 168.02254639 29.88812012 168.90837402 29.74194336 169.82104492 C29.45936211 171.58384429 29.17126122 173.34576919 28.87719727 175.10668945 C28.21640015 179.3323895 27.72304986 182.81777405 29 187 C40.40190151 190.16298876 51.4360061 192.49221277 63.3125 192.5 C64.24715088 192.50580078 65.18180176 192.51160156 66.14477539 192.51757812 C73.72209928 192.38147891 80.94406515 191.39754788 86.5 185.875 C89.56996137 181.79597055 90.3405361 178.04990122 90 173 C88.03351784 160.67400874 79.93508063 150.22343321 72 141 C71.21882813 140.08476562 70.43765625 139.16953125 69.6328125 138.2265625 C65.02452691 132.70481296 65.02452691 132.70481296 59 129 Z M-54 156 C-52.5624791 170.08465428 -52.5624791 170.08465428 -50 184 C-36.81236194 179.47658399 -36.81236194 179.47658399 -24 174 C-28.28203581 170.28546291 -32.91999566 167.68497772 -37.875 165 C-39.43510322 164.14621217 -40.99500188 163.29205044 -42.5546875 162.4375 C-43.30073242 162.03015625 -44.04677734 161.6228125 -44.81542969 161.203125 C-47.89838352 159.50522642 -50.95020996 157.75667906 -54 156 Z M19.31640625 158.1953125 C18.17824463 158.89466919 18.17824463 158.89466919 17.01708984 159.6081543 C16.2070752 160.10871338 15.39706055 160.60927246 14.5625 161.125 C12.92075841 162.13441633 11.27883242 163.14353282 9.63671875 164.15234375 C8.84056152 164.64202637 8.0444043 165.13170898 7.22412109 165.63623047 C3.16867387 168.12291852 -0.91270972 170.56611106 -5 173 C-1.17438786 176.38780366 3.35747976 177.89742479 8.0625 179.6875 C9.28549805 180.16799805 9.28549805 180.16799805 10.53320312 180.65820312 C15.12942815 182.47494661 15.12942815 182.47494661 20 183 C22.4190291 174.18782255 24.19265589 165.16491568 24 156 C22.20841895 156 20.80555112 157.27678763 19.31640625 158.1953125 Z M-20.1484375 179.79296875 C-20.98407227 180.17396729 -21.81970703 180.55496582 -22.68066406 180.94750977 C-24.01436035 181.56130493 -24.01436035 181.56130493 -25.375 182.1875 C-32.86428103 185.60007368 -40.36939928 188.91363914 -48 192 C-40.7805854 219.12841363 -40.7805854 219.12841363 -23.0625 240.0625 C-19.10495436 242.2391501 -15.43321788 243.17276495 -11 242 C-5.38728303 239.28177509 -0.60394279 235.79969075 2 230 C1.74889902 227.65639085 1.41434251 225.32031805 1 223 C1.4375 219.6875 1.4375 219.6875 3 217 C4.26972656 216.82984375 5.53945313 216.6596875 6.84765625 216.484375 C9.05011419 216.09010607 9.05011419 216.09010607 11 215 C13.05598447 211.74421241 13.98547683 208.25546236 15 204.5625 C15.29777344 203.59505859 15.59554687 202.62761719 15.90234375 201.63085938 C17.50028777 196.40399326 17.50028777 196.40399326 18 191 C17.42145264 190.78384033 16.84290527 190.56768066 16.24682617 190.3449707 C-3.97148013 182.77140357 -3.97148013 182.77140357 -12.13671875 178.8125 C-15.38046643 177.3980356 -17.06810751 178.37704791 -20.1484375 179.79296875 Z " fill="#FFFFFF" transform="translate(297,11)"/>
<path d="M0 0 C1.32 0 2.64 0 4 0 C5.68823242 1.81323242 5.68823242 1.81323242 7.35546875 4.35546875 C7.97413818 5.28278809 8.59280762 6.21010742 9.23022461 7.16552734 C9.87612549 8.16277832 10.52202637 9.1600293 11.1875 10.1875 C12.52570924 12.20464766 13.86425005 14.22157539 15.203125 16.23828125 C15.85087891 17.22393066 16.49863281 18.20958008 17.16601562 19.22509766 C19.53707332 22.81261652 21.97528501 26.34972893 24.4375 29.875 C25.62517129 31.58321425 26.81270351 33.29152522 28 35 C32.22093614 29.33279327 36.3063795 23.61300237 40.140625 17.67578125 C40.81867188 16.62841797 41.49671875 15.58105469 42.1953125 14.50195312 C43.58926007 12.33815428 44.97440638 10.16866501 46.3515625 7.99414062 C47.02445312 6.96095703 47.69734375 5.92777344 48.390625 4.86328125 C48.98907227 3.92782471 49.58751953 2.99236816 50.20410156 2.02856445 C50.79674805 1.35913818 51.38939453 0.68971191 52 0 C53.32 0 54.64 0 56 0 C60.59230084 13.96059456 64.85034451 28.01978505 69.03897095 42.10583496 C69.63815611 44.11916874 70.23921154 46.13194686 70.84213257 48.14416504 C71.70111702 51.01375631 72.55272691 53.88543575 73.40234375 56.7578125 C73.66452698 57.62993378 73.92671021 58.50205505 74.19683838 59.40060425 C74.43473083 60.21087067 74.67262329 61.02113708 74.91772461 61.85595703 C75.12755478 62.56237335 75.33738495 63.26878967 75.55357361 63.99661255 C76 66 76 66 76 70 C71.76689325 72.11655337 66.2806661 71.3088221 61.6237793 71.35009766 C60.25121125 71.36667967 58.87873035 71.39400037 57.5065918 71.43212891 C55.52705174 71.48683204 53.54662189 71.50562447 51.56640625 71.5234375 C50.37990479 71.54325684 49.19340332 71.56307617 47.97094727 71.58349609 C45 71 45 71 43.20361328 68.85327148 C41.94238948 65.86342917 40.99566419 62.9645251 40.17578125 59.82421875 C39.86962891 58.66728516 39.56347656 57.51035156 39.24804688 56.31835938 C38.93931641 55.12017578 38.63058594 53.92199219 38.3125 52.6875 C37.99216797 51.46998047 37.67183594 50.25246094 37.34179688 48.99804688 C36.55419425 46.00045481 35.77386845 43.00116155 35 40 C32.06129004 42.78107801 29.77026718 45.6081128 27.546875 48.984375 C26.928125 49.91894531 26.309375 50.85351562 25.671875 51.81640625 C25.03765625 52.78449219 24.4034375 53.75257813 23.75 54.75 C23.1003125 55.73355469 22.450625 56.71710938 21.78125 57.73046875 C20.18328622 60.15091389 18.58971291 62.57413114 17 65 C12.466146 64.43135684 12.466146 64.43135684 10.41015625 62.52880859 C9.96542969 61.90828613 9.52070313 61.28776367 9.0625 60.6484375 C8.55976563 59.96136719 8.05703125 59.27429688 7.5390625 58.56640625 C7.03117187 57.84324219 6.52328125 57.12007812 6 56.375 C5.23816406 55.32505859 5.23816406 55.32505859 4.4609375 54.25390625 C2.95966736 52.17907393 1.47812293 50.09136562 0 48 C-0.95767087 46.65838104 -1.91595492 45.31719946 -2.875 43.9765625 C-3.57625 42.99429688 -4.2775 42.01203125 -5 41 C-7.57404141 48.28257252 -9.44767391 55.63649974 -11.19335938 63.15429688 C-11.39896484 64.00958984 -11.60457031 64.86488281 -11.81640625 65.74609375 C-11.99631104 66.51622803 -12.17621582 67.2863623 -12.36157227 68.07983398 C-13 70 -13 70 -15 72 C-17.625 71.625 -17.625 71.625 -20 71 C-19.42604625 63.44509752 -17.6516864 56.58841732 -15.5078125 49.3359375 C-15.16120575 48.14449127 -14.814599 46.95304504 -14.45748901 45.72549438 C-13.72636286 43.2182979 -12.99160477 40.71215798 -12.25341797 38.20703125 C-11.50042008 35.64990123 -10.75057395 33.09217334 -10.00732422 30.53222656 C-8.92930956 26.81943547 -7.84484877 23.10859623 -6.7578125 19.3984375 C-6.42645294 18.25974213 -6.09509338 17.12104675 -5.75369263 15.94784546 C-4.1303326 10.45824186 -2.41169098 5.19476934 0 0 Z " fill="#FFFFFF" transform="translate(416,104)"/>
<path d="M0 0 C1.32 0 2.64 0 4 0 C4.60920288 1.10565308 4.60920288 1.10565308 5.23071289 2.23364258 C7.17416809 5.7601898 9.11816952 9.2864353 11.0625 12.8125 C11.41947968 13.45993164 11.77645935 14.10736328 12.14425659 14.77441406 C16.13759463 22.0157027 20.13624561 29.2539435 24.15625 36.48046875 C24.48749374 37.07600052 24.81873749 37.67153229 25.16001892 38.28511047 C26.72579354 41.09947194 28.29288443 43.91309125 29.86157227 46.72583008 C31.00221181 48.77436159 32.13850042 50.82532294 33.27001953 52.87890625 C34.5046213 55.10627699 35.75483023 57.31934964 37.02294922 59.52734375 C37.68096597 60.69514244 38.33868866 61.86310687 38.99609375 63.03125 C39.59478271 64.07861328 40.19347168 65.12597656 40.81030273 66.20507812 C42 69 42 69 41.68774414 71.37304688 C41.46078857 71.90994141 41.23383301 72.44683594 41 73 C36.24967759 73.19826372 31.50177568 73.34314101 26.74829102 73.43945312 C25.13295542 73.4796058 23.51790922 73.53414477 21.90356445 73.60351562 C16.84019609 73.81559388 11.99674262 73.92776433 7 73 C5.22681023 71.03416007 4.56330015 69.25973141 3.55786133 66.83007812 C1.48510987 64.39513925 -0.41288167 64.33097962 -3.50886536 64.08068848 C-7.28065874 63.94223657 -11.03908228 63.95031345 -14.8125 64 C-16.3795802 63.99190474 -17.94664625 63.98022439 -19.51367188 63.96484375 C-23.34352846 63.93505129 -27.17032955 63.95435963 -31 64 C-31.29648437 64.94101563 -31.59296875 65.88203125 -31.8984375 66.8515625 C-32.92808062 69.7944432 -34.00695307 71.6445809 -36 74 C-37.9375 73.6875 -37.9375 73.6875 -40 73 C-41 70 -41 70 -39.4375 66.6484375 C-38.63656956 65.21742122 -37.82291745 63.79348652 -37 62.375 C-36.55285645 61.58794678 -36.10571289 60.80089355 -35.64501953 59.98999023 C-31.20667896 52.23522712 -26.60830266 44.57229114 -21.97729492 36.93139648 C-18.4573969 31.12301165 -15.00000075 25.28957166 -11.62109375 19.3984375 C-10.53733144 17.52199022 -9.45237402 15.6462394 -8.36700439 13.77072144 C-7.66682704 12.55348599 -6.97190582 11.33321122 -6.28240967 10.1098938 C-5.32268811 8.40812882 -4.34342739 6.7174275 -3.36328125 5.02734375 C-2.80938721 4.05531006 -2.25549316 3.08327637 -1.68481445 2.08178711 C-1.12882568 1.39479736 -0.57283691 0.70780762 0 0 Z M-14 36 C-16.15766675 39.2037688 -18.08319819 42.5588212 -20.0625 45.875 C-20.63033203 46.81214844 -21.19816406 47.74929687 -21.78320312 48.71484375 C-22.58854492 50.05869141 -22.58854492 50.05869141 -23.41015625 51.4296875 C-23.90652588 52.25710449 -24.40289551 53.08452148 -24.91430664 53.93701172 C-26.15523874 55.90643909 -26.15523874 55.90643909 -26 58 C-18.08 58 -10.16 58 -2 58 C-3.75672899 52.70658532 -3.75672899 52.70658532 -6.1640625 47.9140625 C-6.56367187 47.21152344 -6.96328125 46.50898438 -7.375 45.78515625 C-7.7875 45.07230469 -8.2 44.35945313 -8.625 43.625 C-9.04523437 42.88894531 -9.46546875 42.15289062 -9.8984375 41.39453125 C-10.92752764 39.5936235 -11.96310756 37.79642682 -13 36 C-13.33 36 -13.66 36 -14 36 Z " fill="#FFFFFF" transform="translate(47,102)"/>
<path d="M0 0 C1.18580658 0.00444122 2.37161316 0.00888245 3.59335327 0.01345825 C4.24713455 0.0131662 4.90091583 0.01287415 5.57450867 0.01257324 C7.73896483 0.01396839 9.90307822 0.02953783 12.06747437 0.04519653 C13.56677055 0.04892602 15.06606916 0.05177329 16.56536865 0.05377197 C20.5142793 0.06141355 24.46304316 0.08106644 28.41189575 0.10317993 C32.44029759 0.12362713 36.46872311 0.13277127 40.49716187 0.14285278 C48.40347928 0.16431192 56.30967732 0.19845409 64.21591187 0.24050903 C64.59809954 1.89665561 64.92986288 3.56507928 65.21591187 5.24050903 C64.21591187 6.24050903 64.21591187 6.24050903 62.45004272 6.35403442 C61.70117798 6.34879761 60.95231323 6.34356079 60.18075562 6.33816528 C59.3718689 6.33494263 58.56298218 6.33171997 57.72958374 6.32839966 C56.87944702 6.32002075 56.0293103 6.31164185 55.15341187 6.30300903 C54.29940796 6.29849731 53.44540405 6.2939856 52.56552124 6.28933716 C50.44895523 6.27751277 48.33242501 6.25957672 46.21591187 6.24050903 C46.21813248 7.00250107 46.22035309 7.7644931 46.22264099 8.54957581 C46.24264343 15.71602615 46.25788575 22.88246305 46.26772404 30.04893398 C46.27295195 33.73365401 46.28004791 37.41835106 46.29135132 41.10305786 C46.30218349 44.65621734 46.3081894 48.20935466 46.31078911 51.76252937 C46.31264276 53.1209657 46.31626225 54.47940075 46.32164192 55.83782768 C46.32885661 57.73433127 46.32931996 59.63085696 46.32943726 61.52737427 C46.33165787 62.6088121 46.33387848 63.69024994 46.33616638 64.80445862 C46.21591187 67.24050903 46.21591187 67.24050903 45.21591187 68.24050903 C42.99735922 68.32834445 40.7760269 68.34745512 38.55575562 68.33816528 C37.55905602 68.33604286 37.55905602 68.33604286 36.54222107 68.33387756 C34.41257287 68.32826421 32.28302847 68.31570957 30.15341187 68.30300903 C28.71265817 68.29799575 27.27190284 68.29343254 25.83114624 68.28933716 C22.29270085 68.27829048 18.75431648 68.26101695 15.21591187 68.24050903 C13.8754166 65.5595185 14.09610666 63.50739698 14.10238647 60.50564575 C14.10246201 59.3045517 14.10253754 58.10345764 14.10261536 56.8659668 C14.10777664 55.56386261 14.11293793 54.26175842 14.11825562 52.92019653 C14.12012049 51.5778407 14.12154406 50.23548419 14.12254333 48.89312744 C14.12636308 45.35855229 14.13618874 41.82401816 14.14724731 38.28945923 C14.15747309 34.68330439 14.16204346 31.07714293 14.16708374 27.47097778 C14.17781149 20.39413647 14.19540391 13.31732974 14.21591187 6.24050903 C8.27591187 6.24050903 2.33591187 6.24050903 -3.78408813 6.24050903 C-4.11408813 4.92050903 -4.44408813 3.60050903 -4.78408813 2.24050903 C-2.78408813 0.24050903 -2.78408813 0.24050903 0 0 Z " fill="#FFFFFF" transform="translate(90.78408813476563,106.75949096679688)"/>
<path d="M0 0 C5.48199824 4.48527129 10.15299671 9.1522076 11.75 16.25 C8.6525664 16.67513795 5.83207776 16.84653118 2.75 16.25 C1.1695119 14.68279331 0.24660278 13.05666435 -0.87109375 11.13671875 C-4.04784128 6.7900642 -10.01864921 4.16990005 -15.25 3.25 C-25.97443163 2.52793562 -35.59193685 2.43462711 -44.1875 9.75 C-46.26539731 12.12207625 -46.26539731 12.12207625 -47.5625 14.5625 C-49.68042372 16.68042372 -50.5137817 16.49487067 -53.4375 16.5 C-54.695625 16.4175 -55.95375 16.335 -57.25 16.25 C-57.25 10.55611033 -54.48605547 7.40776643 -50.77734375 3.4375 C-36.35129528 -9.04872433 -16.06862839 -8.65233836 0 0 Z " fill="#FFFFFF" transform="translate(305.25,107.75)"/>
<path d="M0 0 C0.99 0.33 1.98 0.66 3 1 C2.96695791 3.91971883 2.89977677 6.8318228 2.8125 9.75 C2.80669922 10.575 2.80089844 11.4 2.79492188 12.25 C2.64535791 16.37131826 2.56436007 18.34973733 -0.20703125 21.54296875 C-3.2339032 23.12202223 -5.10341705 23.56727048 -8.5 23.5625 C-9.87671875 23.59537109 -9.87671875 23.59537109 -11.28125 23.62890625 C-15.22731495 22.71609525 -16.63959594 21.27151156 -19 18 C-19.57968947 15.02954379 -19.47658893 12.19916307 -19.3125 9.1875 C-19.28994141 8.39923828 -19.26738281 7.61097656 -19.24414062 6.79882812 C-19.18554161 4.86506071 -19.09586827 2.93227833 -19 1 C-15.37 1 -11.74 1 -8 1 C-8 7.27 -8 13.54 -8 20 C-6.02 19.67 -4.04 19.34 -2 19 C-1.93941406 17.71222656 -1.87882812 16.42445312 -1.81640625 15.09765625 C-1.73201753 13.41925841 -1.6473687 11.74087364 -1.5625 10.0625 C-1.52318359 9.21236328 -1.48386719 8.36222656 -1.44335938 7.48632812 C-1.40146484 6.67744141 -1.35957031 5.86855469 -1.31640625 5.03515625 C-1.27974854 4.2862915 -1.24309082 3.53742676 -1.20532227 2.76586914 C-1 1 -1 1 0 0 Z " fill="#FFFFFF" transform="translate(366,78)"/>
<path d="M0 0 C3.41147754 1.70573877 5.38347495 3.03500427 7.4375 6.25 C8.21357066 10.04412325 8.18359667 13.29189651 7 17 C3.58054473 21.120882 1.57421093 22.84257891 -3.75 23.375 C-7.10058068 23.35058775 -8.84894532 22.75601354 -11.4375 20.625 C-14.60775441 17.37742232 -15.15104381 16.01432536 -15.1875 11.625 C-15.20167969 10.85414063 -15.21585937 10.08328125 -15.23046875 9.2890625 C-14.85992182 5.60871499 -13.71491438 3.58875302 -10.875 1.25 C-7.17672056 -0.35794758 -3.93371825 -0.69282709 0 0 Z M-4 3 C-4 8.61 -4 14.22 -4 20 C1.04484603 19.26011158 1.04484603 19.26011158 4 16 C5.09445546 12.40393206 5.31966474 10.70326243 3.75 7.25 C2.02635231 4.78918149 2.02635231 4.78918149 -1 3 C-1.99 3 -2.98 3 -4 3 Z " fill="#FFFFFF" transform="translate(286,120)"/>
<path d="M0 0 C2.0625 2 2.0625 2 3 4 C0 5 0 5 -2.1875 4.0625 C-2.785625 3.711875 -3.38375 3.36125 -4 3 C-3.4225 3.65226563 -2.845 4.30453125 -2.25 4.9765625 C-1.13625 6.28753906 -1.13625 6.28753906 0 7.625 C0.7425 8.48351562 1.485 9.34203125 2.25 10.2265625 C4.29845104 13.4729916 4.45072654 15.22980502 4 19 C2.14657225 21.55949546 1.06243607 21.97918798 -2 23 C-6.93333512 23.36543223 -10.09329809 23.19639247 -14 20 C-14 19.01 -14 18.02 -14 17 C-11.61435923 17.57584432 -9.33317216 18.22227595 -7 19 C-7.5053125 18.41992188 -8.010625 17.83984375 -8.53125 17.2421875 C-13.79259259 10.91604938 -13.79259259 10.91604938 -14.75 6.6875 C-14 4 -14 4 -12.0625 1.625 C-7.99967465 -0.53078488 -4.51641596 -0.90502362 0 0 Z " fill="#FFFFFF" transform="translate(360,166)"/>
<path d="M0 0 C7.26 0 14.52 0 22 0 C22 0.99 22 1.98 22 3 C20.35 3 18.7 3 17 3 C17 9.27 17 15.54 17 22 C13.37 22 9.74 22 6 22 C6 15.73 6 9.46 6 3 C4.02 3 2.04 3 0 3 C0 2.01 0 1.02 0 0 Z " fill="#FFFFFF" transform="translate(271,209)"/>
<path d="M0 0 C3.63 0 7.26 0 11 0 C11.05407567 2.58361518 11.093707 5.16609255 11.125 7.75 C11.14175781 8.47960937 11.15851563 9.20921875 11.17578125 9.9609375 C11.24065467 17.09701345 11.24065467 17.09701345 9 20 C4.95441671 22.69991258 0.69678565 22.5601671 -4 22 C-6.5625 20.75 -6.5625 20.75 -8 19 C-8 17.68 -8 16.36 -8 15 C-7.01 15 -6.02 15 -5 15 C-4.01 16.485 -4.01 16.485 -3 18 C-2.01 18.33 -1.02 18.66 0 19 C0 12.73 0 6.46 0 0 Z " fill="#FFFFFF" transform="translate(204,79)"/>
<path d="M0 0 C3.63 0 7.26 0 11 0 C11 7.26 11 14.52 11 22 C7.37 22 3.74 22 0 22 C0 14.74 0 7.48 0 0 Z " fill="#FFFFFF" transform="translate(277,39)"/>
<path d="M0 0 C3.3 0 6.6 0 10 0 C11 1 11 1 11.11352539 3.04125977 C11.10828857 3.91580811 11.10305176 4.79035645 11.09765625 5.69140625 C11.09443359 6.63564453 11.09121094 7.57988281 11.08789062 8.55273438 C11.07951172 9.54595703 11.07113281 10.53917969 11.0625 11.5625 C11.05798828 12.55958984 11.05347656 13.55667969 11.04882812 14.58398438 C11.03700023 17.05601487 11.01906415 19.52801472 11 22 C7.37 22 3.74 22 0 22 C0 14.74 0 7.48 0 0 Z " fill="#FFFFFF" transform="translate(204,166)"/>
</svg>
