<?xml version="1.0" encoding="UTF-8"?>
<svg version="1.1" xmlns="http://www.w3.org/2000/svg" width="1920" height="1080">
<path d="M0 0 C26.37137081 21.35153708 44.23104254 50.150603 58.75341797 80.4375 C59.68495479 82.37026713 60.63821886 84.29115772 61.59423828 86.21191406 C77.87635952 119.33493675 88.77472575 155.62663375 97.68017578 191.36035156 C101.82416839 191.36035156 105.24623904 190.52151869 109.18798828 189.41894531 C110.73081319 188.99857653 112.27378878 188.57876051 113.81689453 188.15942383 C114.6294873 187.93715118 115.44208008 187.71487854 116.27929688 187.48587036 C142.41769816 180.36608667 168.72807054 174.41647581 195.68017578 171.36035156 C195.95603516 170.46316406 196.23189453 169.56597656 196.51611328 168.64160156 C199.75200374 159.5202996 205.61538085 153.44561174 214.14501953 149.10644531 C223.33156806 145.23487493 233.07370779 144.8598815 242.55517578 147.98535156 C250.98127931 151.52406758 256.79048142 156.6676477 261.68017578 164.36035156 C261.94000244 165.04145996 262.1998291 165.72256836 262.4675293 166.42431641 C263.510017 168.55061948 263.510017 168.55061948 265.7487793 169.02636719 C266.5936792 169.10564453 267.4385791 169.18492187 268.30908203 169.26660156 C269.7253186 169.41899292 269.7253186 169.41899292 271.17016602 169.57446289 C272.18409424 169.66880615 273.19802246 169.76314941 274.24267578 169.86035156 C299.69240955 172.72361928 325.22527436 179.84401683 344.68017578 197.36035156 C345.70498047 198.2459375 345.70498047 198.2459375 346.75048828 199.14941406 C360.07876816 211.43233866 368.41239256 229.90823433 369.98388672 247.82250977 C370.1166371 251.38256559 370.14804771 254.92298796 370.11767578 258.48535156 C370.10937744 259.75507813 370.1010791 261.02480469 370.0925293 262.33300781 C369.90612468 272.78758711 368.65350078 282.35241955 365.68017578 292.36035156 C365.43879883 293.18905762 365.19742188 294.01776367 364.94873047 294.87158203 C352.87843512 335.44751199 328.79486356 372.67397823 301.18017578 404.46191406 C298.84221287 407.17248981 296.59953716 409.93731947 294.36767578 412.73535156 C289.52628764 418.68930287 284.2770367 424.23304459 279.01220703 429.80957031 C276.40747514 432.57115252 273.87146837 435.38151419 271.36767578 438.23535156 C264.49814965 445.94390379 257.01938764 453.10329034 249.68017578 460.36035156 C251.29643108 464.44698577 254.2321289 467.14986022 257.31689453 470.15722656 C258.15339287 470.98592255 258.15339287 470.98592255 259.00679016 471.83135986 C260.78905384 473.5958567 262.57783914 475.35353951 264.36767578 477.11035156 C278.40819412 490.93013721 278.40819412 490.93013721 284.68017578 498.36035156 C286.13463095 499.96803529 287.59238473 501.57274871 289.05517578 503.17285156 C293.78593671 508.42216133 298.2501463 513.85659102 302.68017578 519.36035156 C303.60555986 520.49348853 304.53135971 521.62628605 305.45751953 522.75878906 C334.39396509 558.3095544 362.93695614 601.08791331 369.68017578 647.36035156 C369.87353516 648.68292969 369.87353516 648.68292969 370.07080078 650.03222656 C372.74456522 672.12596432 369.00619029 695.91455246 355.41650391 714.04638672 C334.16443624 740.15358871 302.84926396 749.95045444 270.49267578 753.61035156 C212.61793262 759.15303845 153.99214612 746.20816329 98.68017578 730.36035156 C96.77778458 735.81672762 95.09899126 741.30932677 93.55126953 746.87597656 C93.3592395 747.56598251 93.16720947 748.25598846 92.96936035 748.96690369 C92.77128784 749.67867264 92.57321533 750.39044159 92.36914062 751.1237793 C86.11909836 773.57638685 79.40730509 795.98706524 69.83984375 817.2878418 C67.94102748 821.54894243 67.94102748 821.54894243 68.31689453 826.07519531 C68.76677734 826.82929687 69.21666016 827.58339844 69.68017578 828.36035156 C70.09396484 829.19695313 70.50775391 830.03355469 70.93408203 830.89550781 C71.80809188 832.58352086 72.68309583 834.27101954 73.55908203 835.95800781 C77.21514722 843.79243322 76.73577367 853.26613995 73.93017578 861.29785156 C69.95744313 870.81041555 63.52333076 878.41031872 54.05517578 882.86035156 C47.4933248 885.2276016 40.54476958 884.68985206 33.68017578 884.36035156 C33.43009766 884.90820312 33.18001953 885.45605469 32.92236328 886.02050781 C20.16261138 910.05538638 -5.43259502 930.86373451 -30.86669922 939.57519531 C-53.5791925 946.30748499 -74.97626015 943.11018667 -95.93310547 932.27441406 C-105.01793827 927.13996415 -112.77549857 920.51778872 -120.31982422 913.36035156 C-121.26728516 912.47734375 -122.21474609 911.59433594 -123.19091797 910.68457031 C-171.2559669 864.98144025 -191.79690198 792.64714365 -208.31982422 730.36035156 C-209.04121582 730.5660376 -209.76260742 730.77172363 -210.50585938 730.98364258 C-240.79123152 739.57839768 -271.17123839 746.71824023 -302.31982422 751.36035156 C-303.52864258 751.54114258 -304.73746094 751.72193359 -305.98291016 751.90820312 C-351.90260141 758.43848435 -409.01616351 759.457734 -448.25415039 730.88378906 C-465.05160259 718.23172976 -475.8183568 700.95239818 -479.63232422 680.17285156 C-486.57753794 625.14538902 -454.05797303 573.16579716 -421.8828125 531.38916016 C-417.31921196 525.54466997 -412.62439147 519.83036794 -407.77685547 514.21972656 C-405.31388147 511.35343568 -402.93778254 508.43037536 -400.56982422 505.48535156 C-397.58145644 501.81104172 -394.4965675 498.40337646 -391.08276367 495.12451172 C-389.40666937 493.44725685 -387.88368795 491.71469539 -386.35498047 489.90332031 C-381.32030807 484.10878532 -375.82891977 478.76241996 -370.38232422 473.36035156 C-369.30591768 472.28897269 -368.22974408 471.21735974 -367.15380859 470.14550781 C-364.54515677 467.54775519 -361.93337951 464.95317194 -359.31982422 462.36035156 C-364.51562364 456.11390076 -370.16213486 450.45412645 -375.95458984 444.76464844 C-380.04323209 440.72008859 -383.94579472 436.59383772 -387.69604492 432.23364258 C-390.12169963 429.4352591 -392.66185754 426.74868853 -395.19482422 424.04785156 C-400.49328457 418.34580881 -405.45384006 412.43693598 -410.31982422 406.36035156 C-411.38502054 405.05077274 -412.45151683 403.74225064 -413.51904297 402.43457031 C-414.08042969 401.74532471 -414.64181641 401.0560791 -415.22021484 400.34594727 C-416.36401653 398.94615032 -417.51241853 397.55009901 -418.66552734 396.15795898 C-421.66210342 392.51718931 -424.26078013 388.86746284 -426.75732422 384.86035156 C-428.22537941 382.71421973 -428.22537941 382.71421973 -430.31982422 381.36035156 C-433.87880747 380.91382074 -437.17954037 381.0545926 -440.75732422 381.27441406 C-448.80961024 381.4686578 -454.68651621 378.24134026 -460.69482422 373.11035156 C-468.00198318 366.04676456 -472.48524715 358.69730027 -472.69921875 348.29443359 C-472.69776855 347.57368652 -472.69631836 346.85293945 -472.69482422 346.11035156 C-472.69466309 345.36253418 -472.69450195 344.6147168 -472.69433594 343.84423828 C-472.54000124 336.33382462 -470.47641994 330.59524515 -466.31982422 324.36035156 C-466.62119281 318.78503262 -468.41865463 314.28668784 -470.56982422 309.23535156 C-481.07562926 283.49151903 -485.36107231 252.46660878 -475.00732422 226.04785156 C-470.52274251 216.10725057 -464.97211287 208.13706768 -457.31982422 200.36035156 C-456.55798828 199.585625 -455.79615234 198.81089844 -455.01123047 198.01269531 C-426.29983998 170.52707848 -381.36233084 167.65568076 -343.86425781 168.26708984 C-306.02408909 169.26274658 -268.80331121 176.71536825 -232.25732422 186.11035156 C-231.51625427 186.30076019 -230.77518433 186.49116882 -230.01165771 186.68734741 C-222.35847401 188.664525 -214.78082109 190.73195133 -207.31982422 193.36035156 C-207.13105713 191.60658203 -207.13105713 191.60658203 -206.93847656 189.81738281 C-206.43083292 185.77928324 -205.52573218 181.97027126 -204.42138672 178.04785156 C-204.13581909 177.03037338 -204.13581909 177.03037338 -203.84448242 175.99234009 C-203.21935759 173.77927646 -202.58349919 171.56954069 -201.94482422 169.36035156 C-201.72429382 168.59358093 -201.50376343 167.8268103 -201.27655029 167.0368042 C-186.82700655 116.96980129 -168.12184314 63.16562056 -133.31982422 23.36035156 C-132.61728516 22.54953125 -131.91474609 21.73871094 -131.19091797 20.90332031 C-128.9375516 18.3521177 -126.64146954 15.84949814 -124.31982422 13.36035156 C-123.57216797 12.54695313 -122.82451172 11.73355469 -122.05419922 10.89550781 C-88.42690944 -24.34633727 -39.07307619 -30.21714624 0 0 Z M-97.31982422 25.36035156 C-97.95791016 25.87597656 -98.59599609 26.39160156 -99.25341797 26.92285156 C-144.87150999 64.31139914 -164.16591197 134.68581746 -179.31982422 189.36035156 C-179.55540039 190.20307617 -179.79097656 191.04580078 -180.03369141 191.9140625 C-180.99229709 195.50256023 -181.39319961 198.65923365 -181.31982422 202.36035156 C-180.44696777 202.66102539 -179.57411133 202.96169922 -178.67480469 203.27148438 C-144.94783932 214.92942694 -111.74362882 227.87869639 -79.42138672 243.03613281 C-78.77877899 243.33712387 -78.13617126 243.63811493 -77.47409058 243.94822693 C-74.40179642 245.38985315 -71.33590895 246.84264023 -68.27636719 248.3112793 C-67.18727051 248.82762939 -66.09817383 249.34397949 -64.97607422 249.87597656 C-64.02539062 250.33262695 -63.07470703 250.78927734 -62.09521484 251.25976562 C-57.63815206 253.02722156 -54.75126315 253.85311873 -50.12060547 252.2590332 C-48.96947266 251.68531982 -47.81833984 251.11160645 -46.63232422 250.52050781 C-45.98982224 250.20747711 -45.34732025 249.89444641 -44.68534851 249.57192993 C-43.29060373 248.89174131 -41.89903001 248.20502002 -40.51034546 247.51254272 C-36.72232866 245.62816546 -32.90582273 243.80343528 -29.08935547 241.97753906 C-28.29221634 241.59536728 -27.49507721 241.2131955 -26.67378235 240.81944275 C-0.40598345 228.30407947 26.98858311 217.34468469 54.54345703 208.01660156 C55.62248291 207.65050781 56.70150879 207.28441406 57.81323242 206.90722656 C59.83558325 206.22798787 61.86196195 205.56058286 63.89282227 204.90722656 C64.77655518 204.61332031 65.66028809 204.31941406 66.57080078 204.01660156 C67.34456055 203.76716797 68.11832031 203.51773438 68.91552734 203.26074219 C71.04522986 202.43404867 71.04522986 202.43404867 71.68017578 199.36035156 C71.18585476 196.93434733 70.61645748 194.62308712 69.94189453 192.24707031 C69.74599731 191.53410294 69.5501001 190.82113556 69.3482666 190.08656311 C68.69842004 187.73729688 68.03435349 185.39239352 67.36767578 183.04785156 C67.1402066 182.24069702 66.91273743 181.43354248 66.67837524 180.60192871 C50.38495236 122.88658944 26.78618867 46.63277292 -28.06201172 14.08691406 C-52.92144386 0.91201118 -76.7590329 7.86780869 -97.31982422 25.36035156 Z M-440.59326172 221.66503906 C-445.7185575 227.62867318 -448.80678231 233.94331696 -451.31982422 241.36035156 C-451.56603516 242.06289063 -451.81224609 242.76542969 -452.06591797 243.48925781 C-457.48542085 262.58833348 -451.32822887 284.53707382 -444.31982422 302.36035156 C-444.03220215 303.11493652 -443.74458008 303.86952148 -443.44824219 304.64697266 C-442.55084963 306.74181616 -441.69672631 308.54390108 -440.31982422 310.36035156 C-437.48135133 311.31813367 -437.48135133 311.31813367 -434.31982422 310.98535156 C-424.92821674 311.12284131 -417.27784642 315.15236492 -410.31982422 321.36035156 C-408.58935547 323.69238281 -408.58935547 323.69238281 -407.13232422 326.17285156 C-406.39949219 327.38908203 -406.39949219 327.38908203 -405.65185547 328.62988281 C-401.55847532 337.02071192 -400.47693293 347.39987052 -403.25341797 356.37988281 C-403.96199242 358.01524323 -404.7189166 359.63133695 -405.54248047 361.21191406 C-406.58650999 364.09742279 -406.31720405 365.45967486 -405.31982422 368.36035156 C-403.4118361 371.33989353 -403.4118361 371.33989353 -400.94482422 374.36035156 C-400.49929199 374.9250415 -400.05375977 375.48973145 -399.59472656 376.0715332 C-395.10308484 381.72329376 -390.44299487 387.23258483 -385.73632812 392.70556641 C-384.320481 394.3595843 -382.91837429 396.02437988 -381.51904297 397.69238281 C-368.30244845 413.38610089 -353.90802224 427.9493271 -339.31982422 442.36035156 C-335.68580845 440.64912592 -333.19345318 438.5610127 -330.25732422 435.79785156 C-325.73287421 431.595872 -321.06458513 427.64518707 -316.25732422 423.76660156 C-312.95628227 421.06255657 -309.73236807 418.27902296 -306.50732422 415.48535156 C-300.1734707 410.01808082 -293.65698364 404.82484051 -287.04345703 399.70166016 C-285.36491008 398.3954368 -283.69618915 397.07777905 -282.03076172 395.75488281 C-276.11965239 391.06348468 -270.15921313 386.44261754 -264.12304688 381.9128418 C-262.41070355 380.62015194 -260.70986355 379.3120918 -259.02050781 377.98950195 C-254.87366293 374.78742271 -250.99453712 372.08284294 -246.17919922 369.98925781 C-240.64778947 367.37483656 -236.40528043 364.79270399 -233.31982422 359.36035156 C-230.02469846 348.83383499 -230.30992958 337.00648555 -229.81182861 326.08483887 C-229.31909533 315.82031153 -228.01150267 305.71610448 -226.56982422 295.54785156 C-226.38457687 294.20536346 -226.38457687 294.20536346 -226.19558716 292.83575439 C-223.88685833 276.11871897 -221.00971641 259.50789259 -217.94775391 242.91381836 C-217.69699852 241.55074051 -217.69699852 241.55074051 -217.44117737 240.16012573 C-217.13062998 238.47870538 -216.81705389 236.79783989 -216.49961853 235.1177063 C-215.52793219 229.87828581 -214.85687047 224.66257066 -214.31982422 219.36035156 C-332.2359838 184.60145735 -332.2359838 184.60145735 -440.59326172 221.66503906 Z M260.77001953 198.08300781 C260.38974609 198.85515625 260.00947266 199.62730469 259.61767578 200.42285156 C254.73586804 208.92923436 248.11049335 213.7192885 238.68017578 216.36035156 C229.46668262 218.33986984 219.88644933 217.20452525 211.59033203 212.62207031 C205.65333313 208.70049435 201.5015919 204.36301848 197.68017578 198.36035156 C165.68576686 202.5941464 134.59496384 210.22498703 103.68017578 219.36035156 C103.79498291 219.9478418 103.90979004 220.53533203 104.02807617 221.140625 C109.6866274 250.34284052 114.51894441 279.73551518 118.11367798 309.26473999 C118.3239537 310.98921988 118.53696828 312.71336811 118.7527771 314.43716431 C119.80724298 322.86431025 120.75092513 331.23470492 121.09033203 339.72363281 C121.16120949 352.41119747 121.16120949 352.41119747 126.75439453 363.23925781 C130.02067678 365.98042791 133.5877974 368.02481418 137.33740234 370.03222656 C141.50564654 372.39521618 145.23991116 375.34908917 149.05517578 378.23535156 C150.66239356 379.42010626 152.27046969 380.60369739 153.87939453 381.78613281 C171.67164822 394.97451927 188.8519984 408.96829123 205.68017578 423.36035156 C206.2710498 423.8648584 206.86192383 424.36936523 207.47070312 424.88916016 C214.24275602 430.6725399 220.99625078 436.47510575 227.68017578 442.36035156 C233.519382 437.54300644 238.88613854 432.30813627 244.22314453 426.94775391 C245.67386644 425.49168417 247.12984238 424.0410238 248.58642578 422.59082031 C253.83105122 417.3499384 258.86255745 411.99556435 263.68017578 406.36035156 C265.13463095 404.75266784 266.59238473 403.14795442 268.05517578 401.54785156 C272.78607801 396.29838501 277.24743325 390.86208345 281.68017578 385.36035156 C282.59356742 384.25042415 283.50766013 383.14107339 284.42236328 382.03222656 C314.74723516 345.03139483 347.16880976 297.44811269 342.68017578 247.36035156 C340.70035879 233.9395361 332.96662932 222.86270476 322.68017578 214.36035156 C311.28834597 206.53369098 273.08204629 186.97952356 260.77001953 198.08300781 Z M-188.31982422 228.36035156 C-194.46071847 258.31432995 -199.4301964 288.38826844 -203.19482422 318.73535156 C-203.3150293 319.69014404 -203.43523437 320.64493652 -203.55908203 321.62866211 C-204.25424618 327.56284587 -204.45004782 333.38775053 -204.31982422 339.36035156 C-203.74619141 338.99425781 -203.17255859 338.62816406 -202.58154297 338.25097656 C-200.11456808 336.67870121 -197.64568835 335.10944896 -195.17626953 333.54101562 C-193.91184217 332.73686377 -192.6482006 331.9314753 -191.38525391 331.125 C-161.33571149 311.93985455 -130.6920538 293.87743793 -99.26904297 277.03222656 C-95.24619287 274.87306542 -91.27036818 272.64894254 -87.31982422 270.36035156 C-87.31982422 269.70035156 -87.31982422 269.04035156 -87.31982422 268.36035156 C-115.03942959 255.49486155 -143.17095457 243.95227123 -171.88232422 233.48535156 C-172.60385681 233.22187927 -173.3253894 232.95840698 -174.06878662 232.68695068 C-176.08969047 231.95122564 -178.11242858 231.22087446 -180.13623047 230.49316406 C-181.28551025 230.07953613 -182.43479004 229.6659082 -183.61889648 229.23974609 C-186.16336669 228.2571538 -186.16336669 228.2571538 -188.31982422 228.36035156 Z M68.62939453 230.78222656 C67.91236862 231.03787384 67.19534271 231.29352112 66.45658875 231.55691528 C64.09177693 232.40303611 61.72940829 233.25567495 59.36767578 234.11035156 C58.55574768 234.40379456 57.74381958 234.69723755 56.9072876 234.99957275 C29.63724084 244.88190809 3.15866551 256.55326283 -23.31982422 268.36035156 C-23.31982422 269.02035156 -23.31982422 269.68035156 -23.31982422 270.36035156 C-22.47613281 270.8020166 -21.63244141 271.24368164 -20.76318359 271.69873047 C-3.56951214 280.71157554 13.44586899 289.9056642 30.12744141 299.84375 C32.47655064 301.23937611 34.8334004 302.62019007 37.19580078 303.99316406 C52.4075695 312.84109417 67.38023093 322.09616769 82.08837891 331.75854492 C86.20581283 334.45396234 90.3848661 336.95741992 94.68017578 339.36035156 C94.07812304 327.39926583 92.71032432 315.60068561 91.11767578 303.73535156 C90.99034058 302.77789032 90.86300537 301.82042908 90.73181152 300.83395386 C88.65186391 285.30016587 86.17840619 269.85182967 83.43017578 254.42285156 C83.25791473 253.45055603 83.08565369 252.4782605 82.90817261 251.47650146 C82.41688618 248.71909448 81.91776932 245.96325988 81.41455078 243.20800781 C81.19609245 241.99222298 81.19609245 241.99222298 80.97322083 240.75187683 C80.17829855 236.48030273 79.17278895 232.45686355 77.68017578 228.36035156 C74.47803393 228.36035156 71.6133722 229.70964675 68.62939453 230.78222656 Z M-63.31591797 287.42675781 C-64.30803284 287.94382042 -64.30803284 287.94382042 -65.32019043 288.47132874 C-67.4769241 289.60224164 -69.61679905 290.76159355 -71.75732422 291.92285156 C-73.25408078 292.71701724 -74.75156499 293.50981299 -76.24975586 294.30126953 C-87.43753184 300.23794613 -98.51660997 306.37181922 -109.47705078 312.71826172 C-112.50879078 314.46950555 -115.55027057 316.2029568 -118.59326172 317.93457031 C-145.78261936 333.44859399 -172.26546381 350.04343538 -198.13232422 367.67285156 C-199.33393188 368.49112427 -199.33393188 368.49112427 -200.55981445 369.32592773 C-201.29143799 369.82842041 -202.02306152 370.33091309 -202.77685547 370.84863281 C-203.41598877 371.28731689 -204.05512207 371.72600098 -204.71362305 372.17797852 C-206.46441034 373.40476317 -206.46441034 373.40476317 -208.31982422 375.36035156 C-208.7866566 378.45726922 -208.7866566 378.45726922 -208.94384766 382.18066406 C-208.98482826 382.88958801 -209.02580887 383.59851196 -209.06803131 384.32891846 C-209.20050239 386.71392567 -209.31615972 389.09934809 -209.42919922 391.48535156 C-209.47107109 392.31867004 -209.51294296 393.15198853 -209.55608368 394.01055908 C-210.56383847 414.38512662 -210.62584711 434.76016073 -210.58056641 455.15527344 C-210.56917318 460.32413708 -210.57598527 465.4927949 -210.58740997 470.66165161 C-210.62400413 489.98088388 -210.53369176 509.29743531 -209.66594696 528.60028076 C-209.59223496 530.25599517 -209.52426196 531.9119764 -209.46240997 533.56817627 C-209.37454751 535.82851439 -209.26120011 538.08600895 -209.13916016 540.34472656 C-209.07790955 541.61026367 -209.01665894 542.87580078 -208.95355225 544.1796875 C-207.98602263 549.03569284 -205.392962 550.59484848 -201.50512695 553.36816406 C-199.89553101 554.41617188 -199.89553101 554.41617188 -198.25341797 555.48535156 C-197.66716141 555.86878723 -197.08090485 556.2522229 -196.47688293 556.64727783 C-194.5736026 557.89002535 -192.6657148 559.12546854 -190.75732422 560.36035156 C-189.43068055 561.22308241 -188.10418417 562.08603978 -186.77783203 562.94921875 C-182.96393361 565.42805126 -179.14309397 567.89600472 -175.31982422 570.36035156 C-174.38992676 570.96041016 -173.4600293 571.56046875 -172.50195312 572.17871094 C-143.30462638 590.96300507 -113.19593556 608.40899204 -82.52001953 624.65527344 C-79.25206011 626.39645658 -76.00023566 628.16535441 -72.74951172 629.93847656 C-70.6691051 631.05886736 -68.58838888 632.17868352 -66.50732422 633.29785156 C-65.55253174 633.82467529 -64.59773926 634.35149902 -63.61401367 634.89428711 C-62.72673584 635.36648682 -61.83945801 635.83868652 -60.92529297 636.32519531 C-60.15338623 636.74406006 -59.38147949 637.1629248 -58.58618164 637.59448242 C-54.78746315 638.87818165 -52.20189458 637.75263272 -48.63867188 636.16796875 C-47.68009277 635.66942383 -46.72151367 635.17087891 -45.73388672 634.65722656 C-44.10821777 633.81502563 -44.10821777 633.81502563 -42.44970703 632.95581055 C-40.71479004 632.04230835 -40.71479004 632.04230835 -38.94482422 631.11035156 C-37.72967521 630.47497752 -36.51450566 629.83964277 -35.29931641 629.2043457 C-24.773201 623.67985541 -14.41811063 617.86936667 -4.10839844 611.95166016 C-1.33516953 610.36910841 1.4492574 608.80852894 4.23876953 607.25488281 C25.50382904 595.39345841 46.39197411 582.82940054 66.68017578 569.36035156 C67.88361129 568.56264011 69.08706322 567.76495343 70.29052734 566.96728516 C74.42289648 564.22704144 78.55222028 561.48223875 82.68017578 558.73535156 C83.36585632 558.27921478 84.05153687 557.823078 84.75799561 557.3531189 C86.71216343 556.05224705 88.66513932 554.74960786 90.61767578 553.44628906 C91.21472321 553.04891037 91.81177063 552.65153168 92.4269104 552.24211121 C95.18696216 550.47029205 95.18696216 550.47029205 97.68017578 548.36035156 C98.19216069 544.58890719 98.39810508 540.7800839 98.68017578 536.98535156 C98.76267578 535.97601562 98.84517578 534.96667969 98.93017578 533.92675781 C100.68793946 510.88357462 100.88270113 487.7662612 100.86885452 464.66783142 C100.86765817 462.45274711 100.86821401 460.23766747 100.86886597 458.02258301 C100.86766863 439.03487514 100.63658383 420.08077469 99.74267578 401.11035156 C99.69920013 400.18627502 99.65572449 399.26219849 99.6109314 398.31011963 C99.48591222 395.73790605 99.3535028 393.16626494 99.21533203 390.59472656 C99.17673065 389.8676651 99.13812927 389.14060364 99.09835815 388.39151001 C99.07473766 379.70507535 99.07473766 379.70507535 95.77392578 372.21582031 C94.91798828 371.66539062 94.06205078 371.11496094 93.18017578 370.54785156 C92.17599609 369.88398438 91.17181641 369.22011719 90.13720703 368.53613281 C89.5811377 368.18631348 89.02506836 367.83649414 88.45214844 367.47607422 C86.59879088 366.30910756 84.76971254 365.10985798 82.94189453 363.90332031 C79.34345901 361.53888595 75.72062953 359.21456205 72.09033203 356.89941406 C69.61631618 355.3195725 67.14802136 353.73106142 64.68017578 352.14160156 C41.78243851 337.43322294 18.53807529 323.45686607 -5.31982422 310.36035156 C-7.20004841 309.32261988 -9.08025708 308.28486006 -10.96044922 307.24707031 C-20.5297438 301.98167304 -30.1537757 296.82088733 -39.81982422 291.73535156 C-40.78162598 291.22601074 -41.74342773 290.71666992 -42.734375 290.19189453 C-43.63913574 289.71896973 -44.54389648 289.24604492 -45.47607422 288.75878906 C-46.26820313 288.34290527 -47.06033203 287.92702148 -47.87646484 287.49853516 C-48.68277344 287.12293457 -49.48908203 286.74733398 -50.31982422 286.36035156 C-51.26543213 285.91763916 -52.21104004 285.47492676 -53.18530273 285.01879883 C-57.35378503 284.14315456 -59.74756082 285.45793182 -63.31591797 287.42675781 Z M125.68017578 394.36035156 C125.70981415 395.1109082 125.73945251 395.86146484 125.76998901 396.63476562 C126.5402513 416.68083679 126.84068463 436.69772052 126.81054688 456.7578125 C126.80485038 460.59216162 126.80823855 464.42644121 126.81399918 468.26078796 C126.83929921 488.31374975 126.47143774 508.32257679 125.68017578 528.36035156 C127.10921046 527.41598268 128.53713574 526.46993493 129.96459961 525.52319336 C130.75989578 524.99654587 131.55519196 524.46989838 132.37458801 523.92729187 C135.48745526 521.81170242 138.43375249 519.52727781 141.36767578 517.17285156 C142.58369346 516.20654443 143.79984297 515.24040319 145.01611328 514.27441406 C145.93021973 513.54593262 145.93021973 513.54593262 146.86279297 512.80273438 C148.59943217 511.42443448 150.34448303 510.0578837 152.09423828 508.69628906 C169.07837223 495.47308494 185.72202661 481.7452084 201.59423828 467.20019531 C203.55446531 465.47123102 205.56623 463.89559273 207.68017578 462.36035156 C204.2332941 454.06920375 194.45020785 448.29893235 187.65283203 442.80175781 C184.34265313 440.08314833 181.10542602 437.28928267 177.86767578 434.48535156 C171.60288825 429.08128988 165.17123769 423.93213822 158.62841797 418.87011719 C156.48755329 417.2110812 154.35307873 415.54403638 152.21923828 413.87597656 C139.70179289 402.02418679 139.70179289 402.02418679 125.68017578 394.36035156 Z M-245.88232422 401.54785156 C-246.73624756 402.17771973 -247.5901709 402.80758789 -248.4699707 403.45654297 C-256.0422061 409.08179272 -263.36887643 414.97208511 -270.63916016 420.97949219 C-272.90671132 422.84254701 -275.20563769 424.66472492 -277.50732422 426.48535156 C-281.89037534 429.97855506 -286.16552289 433.5900208 -290.43164062 437.22412109 C-293.87577906 440.15411838 -297.36048022 443.02359249 -300.88232422 445.86035156 C-306.92926462 450.77460549 -312.62703299 456.04509273 -318.31982422 461.36035156 C-310.34820721 469.41893167 -301.97392538 476.95926304 -293.14404297 484.06347656 C-290.65751238 486.08571721 -288.21692708 488.15212286 -285.78759766 490.24243164 C-278.99709769 496.07430953 -271.96177597 501.53120806 -264.82763672 506.93457031 C-259.24628933 511.16305031 -253.72833183 515.47222013 -248.20776367 519.77954102 C-247.49579834 520.33472412 -246.78383301 520.88990723 -246.05029297 521.46191406 C-245.11286255 522.194021 -245.11286255 522.194021 -244.15649414 522.94091797 C-243.55039307 523.40933105 -242.94429199 523.87774414 -242.31982422 524.36035156 C-241.27628784 525.19252197 -241.27628784 525.19252197 -240.21166992 526.04150391 C-238.43074009 527.55097718 -238.43074009 527.55097718 -236.31982422 527.36035156 C-236.31982422 483.80035156 -236.31982422 440.24035156 -236.31982422 395.36035156 C-239.39288751 395.36035156 -243.49908287 399.78737484 -245.88232422 401.54785156 Z M227.68017578 480.36035156 C227.08591797 480.905625 226.49166016 481.45089844 225.87939453 482.01269531 C220.5138547 486.89425177 215.02761463 491.55850589 209.38720703 496.11816406 C206.80713987 498.25518939 204.33303094 500.46770902 201.86767578 502.73535156 C197.49237988 506.71790437 192.93288312 510.37853226 188.26147461 514.00146484 C184.46505363 516.94810702 180.72208141 519.94829105 177.01123047 523.00195312 C163.27979739 534.29285192 148.96047578 544.81133881 134.50292969 555.14941406 C133.46338135 555.89384766 133.46338135 555.89384766 132.40283203 556.65332031 C131.80220947 557.08153076 131.20158691 557.50974121 130.58276367 557.95092773 C129.95490967 558.4160376 129.32705566 558.88114746 128.68017578 559.36035156 C127.81046143 559.8540625 126.94074707 560.34777344 126.04467773 560.85644531 C122.35786003 564.76062728 122.54468974 568.92362451 122.12548828 574.12988281 C122.01857162 575.21735809 121.91165497 576.30483337 121.80149841 577.42526245 C121.57161422 579.77622105 121.35137127 582.12813799 121.13967896 584.48080444 C120.57162646 590.75063006 119.9222643 597.01205317 119.27783203 603.27441406 C119.14829636 604.54679428 119.01876068 605.8191745 118.88529968 607.13011169 C117.64205663 619.14959679 116.04777174 631.10082264 114.24267578 643.04785156 C114.09903595 644.00191895 113.95539612 644.95598633 113.80740356 645.93896484 C111.12627444 663.58448754 107.83756457 681.10039918 104.21166992 698.57446289 C103.61770883 701.21509024 103.61770883 701.21509024 103.68017578 703.36035156 C209.34365364 733.32598105 209.34365364 733.32598105 314.30517578 713.73535156 C327.30483495 706.26582805 337.29622574 694.77680267 341.68017578 680.36035156 C349.31865873 647.20239148 333.02908149 612.48929094 316.11767578 584.79785156 C314.34097135 581.96109125 312.52313307 579.15444811 310.68017578 576.36035156 C310.23851074 575.68746094 309.7968457 575.01457031 309.34179688 574.32128906 C299.86484806 559.98303572 289.42481085 546.34495478 278.21142578 533.32519531 C275.89159212 530.60798274 273.65574112 527.84226476 271.43017578 525.04785156 C263.1634395 514.89284997 253.93026068 505.47492085 244.59033203 496.30957031 C242.65929013 494.3390388 240.89009263 492.28627031 239.11767578 490.17285156 C235.75750565 486.23687763 231.93488934 483.27786943 227.68017578 480.36035156 Z M-350.38232422 491.29785156 C-353.56036364 494.51298872 -356.52741348 497.86622425 -359.47216797 501.29394531 C-361.50893014 503.57184634 -363.64456497 505.71453744 -365.81982422 507.86035156 C-369.86826591 511.86796864 -373.62501099 516.02800193 -377.31982422 520.36035156 C-378.21242631 521.38954158 -379.10571173 522.41813918 -379.99951172 523.44628906 C-413.30406834 561.86063118 -455.02424767 613.76408673 -453.66357422 667.56738281 C-452.3556776 681.99883305 -447.53765106 695.42946378 -436.65966797 705.49316406 C-413.20956568 724.20626739 -383.08897844 727.79962736 -354.06982422 727.67285156 C-353.19820648 727.67102875 -352.32658875 727.66920593 -351.42855835 727.66732788 C-335.89339973 727.61298501 -320.70210101 726.6647704 -305.31982422 724.36035156 C-303.58877441 724.10294189 -303.58877441 724.10294189 -301.82275391 723.84033203 C-256.9971693 717.80771259 -256.9971693 717.80771259 -214.31982422 703.36035156 C-215.03227431 695.28283296 -216.55745751 687.3793832 -218.04403687 679.41793823 C-223.95553367 647.58090067 -228.33750216 615.58481129 -231.55810547 583.36816406 C-231.6301973 582.67162216 -231.70228912 581.97508026 -231.77656555 581.25743103 C-232.09421028 578.10191778 -232.33274879 574.97457437 -232.43896484 571.80419922 C-232.56736522 565.58810598 -232.56736522 565.58810598 -235.81201172 560.49316406 C-236.92833984 559.83058594 -238.04466797 559.16800781 -239.19482422 558.48535156 C-240.48074388 557.67350986 -241.76448346 556.85820797 -243.04638672 556.04003906 C-243.73764648 555.61432617 -244.42890625 555.18861328 -245.14111328 554.75 C-249.09003153 552.23125922 -252.81502656 549.40675546 -256.56982422 546.61035156 C-257.37186279 546.01826904 -258.17390137 545.42618652 -259.00024414 544.81616211 C-272.48523983 534.84057301 -285.60897932 524.41633919 -298.58007812 513.78417969 C-300.13930749 512.50808852 -301.70383522 511.23847775 -303.26904297 509.96972656 C-313.68241254 501.51741491 -323.89303855 492.83785609 -333.67700195 483.66162109 C-340.27553816 477.50907065 -344.9850342 485.97435262 -350.38232422 491.29785156 Z M89.28955078 586.18457031 C87.90014282 587.09940186 87.90014282 587.09940186 86.48266602 588.03271484 C85.47534424 588.69770996 84.46802246 589.36270508 83.43017578 590.04785156 C49.10902198 612.55553578 13.50421797 634.17335157 -23.31982422 652.36035156 C-23.31982422 653.02035156 -23.31982422 653.68035156 -23.31982422 654.36035156 C4.60717988 667.09828883 32.89910376 678.69097567 61.68017578 689.36035156 C62.96715398 689.84887512 64.25409984 690.33748392 65.54101562 690.82617188 C66.80986321 691.29902722 68.0789011 691.77137227 69.34814453 692.24316406 C70.48920654 692.67258301 71.63026855 693.10200195 72.8059082 693.54443359 C75.71477206 694.66175007 75.71477206 694.66175007 78.68017578 693.36035156 C82.87776727 671.21156286 86.8999152 649.05965184 90.05517578 626.73535156 C90.17596497 625.88563782 90.29675415 625.03592407 90.42120361 624.16046143 C91.67440431 615.29501948 92.82843506 606.42031163 93.84423828 597.52441406 C93.92958832 596.79072601 94.01493835 596.05703796 94.10287476 595.30111694 C94.54535618 591.30028197 94.76462822 587.38486547 94.68017578 583.36035156 C92.69743191 583.36035156 90.87127255 585.13796993 89.28955078 586.18457031 Z M-204.31982422 584.36035156 C-204.39691423 590.16697012 -204.19387976 595.75476654 -203.47216797 601.51269531 C-203.38028198 602.27391693 -203.288396 603.03513855 -203.19372559 603.81942749 C-202.88905599 606.31322664 -202.57430753 608.80558924 -202.25732422 611.29785156 C-202.14889191 612.16107025 -202.04045959 613.02428894 -201.92874146 613.91366577 C-200.16346223 627.88204277 -198.07350732 641.78570313 -195.75732422 655.67285156 C-195.61583954 656.52620087 -195.47435486 657.37955017 -195.32858276 658.25875854 C-193.30977181 670.3644555 -190.93042705 682.36881915 -188.31982422 694.36035156 C-182.31213902 693.16198067 -176.65124695 691.56887933 -170.92138672 689.41113281 C-170.14098022 689.12171814 -169.36057373 688.83230347 -168.55651855 688.53411865 C-166.01632148 687.58807663 -163.48028331 686.63151381 -160.94482422 685.67285156 C-160.07065857 685.34421112 -159.19649292 685.01557068 -158.2958374 684.67697144 C-140.05334 677.80625636 -122.14751781 670.23598192 -104.31982422 662.36035156 C-103.24780762 661.88855469 -102.17579102 661.41675781 -101.07128906 660.93066406 C-96.14471449 658.76116333 -91.2257467 656.57615782 -86.31982422 654.36035156 C-88.72743014 651.66257653 -91.26375157 650.16735641 -94.45654297 648.49707031 C-96.01659058 647.67215088 -96.01659058 647.67215088 -97.6081543 646.83056641 C-98.72988037 646.24227051 -99.85160645 645.65397461 -101.00732422 645.04785156 C-112.01967216 639.19895065 -122.82724948 633.06919068 -133.56982422 626.73535156 C-138.18450046 624.0149906 -142.83129396 621.35786801 -147.49609375 618.72460938 C-158.32927123 612.60473693 -168.85622013 606.08881091 -179.31982422 599.36035156 C-182.32238987 597.43282197 -185.32595768 595.50690931 -188.33178711 593.58447266 C-190.29013137 592.33160596 -192.24642916 591.07553338 -194.20043945 589.81591797 C-195.08546143 589.24921387 -195.9704834 588.68250977 -196.88232422 588.09863281 C-197.66736328 587.59372314 -198.45240234 587.08881348 -199.26123047 586.56860352 C-201.39694744 585.21937413 -201.39694744 585.21937413 -204.31982422 584.36035156 Z M-62.20654297 672.04394531 C-63.44595498 672.63935415 -64.68554776 673.23438681 -65.92529297 673.82910156 C-66.91795166 674.30863281 -66.91795166 674.30863281 -67.93066406 674.79785156 C-104.29893308 692.31071658 -141.88676119 707.96091062 -180.31982422 720.36035156 C-181.63946457 724.81599716 -180.86053 728.25361186 -179.61669922 732.59863281 C-179.32688675 733.6558403 -179.32688675 733.6558403 -179.03121948 734.73440552 C-178.39060977 737.05114101 -177.73174278 739.36212012 -177.06982422 741.67285156 C-176.84429871 742.47079132 -176.61877319 743.26873108 -176.38641357 744.09085083 C-160.2653419 801.03207518 -137.00855243 876.10763923 -83.11279297 908.27441406 C-69.65987558 915.28581902 -56.22147858 918.21026484 -41.31982422 914.36035156 C-27.27352952 909.72038018 -16.77827744 901.45712917 -6.31982422 891.36035156 C-5.67271484 890.76480469 -5.02560547 890.16925781 -4.35888672 889.55566406 C-0.49385045 885.90837631 2.89686214 881.85530815 6.24267578 877.73535156 C6.70947754 877.18443848 7.1762793 876.63352539 7.65722656 876.06591797 C9.13066624 874.2813806 9.13066624 874.2813806 10.68017578 871.36035156 C10.19251434 868.76166786 10.19251434 868.76166786 8.68017578 866.36035156 C4.04398694 853.2978049 3.24576542 844.37390992 8.68017578 831.36035156 C13.38049214 822.99453651 20.36278205 818.31939136 29.24267578 815.04785156 C32.68017578 814.36035156 32.68017578 814.36035156 34.93408203 814.41503906 C37.50202691 814.42350017 39.27088031 814.26782871 41.68017578 813.36035156 C43.12817203 811.30623922 43.12817203 811.30623922 44.12548828 808.65722656 C44.54427246 807.65699463 44.96305664 806.6567627 45.39453125 805.6262207 C46.03092529 804.00961548 46.03092529 804.00961548 46.68017578 802.36035156 C47.10314941 801.29357178 47.52612305 800.22679199 47.96191406 799.12768555 C49.32195102 795.61387254 50.63442015 792.08586634 51.93017578 788.54785156 C52.1652887 787.90705658 52.40040161 787.2662616 52.64263916 786.60604858 C57.96506085 772.04270825 62.4585511 757.27966025 66.68017578 742.36035156 C66.97214844 741.33554687 67.26412109 740.31074219 67.56494141 739.25488281 C68.32559721 736.56444868 69.07075917 733.87055227 69.80517578 731.17285156 C70.01770996 730.40690674 70.23024414 729.64096191 70.44921875 728.85180664 C71.56972283 724.61005769 71.56972283 724.61005769 70.68017578 720.36035156 C67.91974648 719.04779436 67.91974648 719.04779436 64.44580078 717.96972656 C63.09241559 717.51116309 61.73906441 717.05249926 60.38574219 716.59375 C59.6620343 716.35329956 58.93832642 716.11284912 58.19268799 715.8651123 C24.31766782 704.56460516 -8.83878373 690.53806227 -41.03662109 675.10986328 C-42.20109772 674.55346413 -42.20109772 674.55346413 -43.38909912 673.98582458 C-44.88344063 673.26927069 -46.37531662 672.54754549 -47.86431885 671.81996155 C-53.92831573 668.9098239 -56.24931673 669.14851364 -62.20654297 672.04394531 Z " fill="#030304" transform="translate(1141.31982421875,74.6396484375)"/>
<path d="M0 0 C0.9590625 0.03673828 0.9590625 0.03673828 1.9375 0.07421875 C2.576875 0.07035156 3.21625 0.06648438 3.875 0.0625 C10.07746468 2.1652295 13.92627692 9.77122148 17.4375 14.88671875 C18.35716553 16.21352661 18.35716553 16.21352661 19.29541016 17.56713867 C23.8579499 24.16001446 28.38336945 30.77870104 32.90039062 37.40283203 C37.20829418 43.71564737 41.56677043 49.99227648 45.9375 56.26171875 C52.49969515 65.67653182 58.99958712 75.13194845 65.46875 84.61083984 C73.62716031 96.5582459 81.87417893 108.44355602 90.140625 120.31640625 C90.76646484 121.21713867 91.39230469 122.11787109 92.03710938 123.04589844 C93.3402615 124.90821398 94.65467967 126.76268195 95.97851562 128.61035156 C96.61982422 129.50850586 97.26113281 130.40666016 97.921875 131.33203125 C98.50163086 132.13656738 99.08138672 132.94110352 99.67871094 133.77001953 C100.9375 135.76171875 100.9375 135.76171875 100.9375 137.76171875 C101.9275 137.76171875 102.9175 137.76171875 103.9375 137.76171875 C105.81069028 135.32746319 107.46944004 132.92260839 109.1171875 130.33984375 C109.6328981 129.55015701 110.1486087 128.76047028 110.6799469 127.94685364 C112.40038433 125.30791177 114.10612052 122.6597681 115.8125 120.01171875 C117.02367838 118.14956559 118.23601939 116.28816816 119.44946289 114.42749023 C121.99908612 110.51611867 124.5438916 106.60167549 127.08544922 102.68505859 C132.54504139 94.27975087 138.06100021 85.9116897 143.58013916 77.54541016 C145.37859626 74.81876645 147.17549045 72.09109784 148.97216797 69.36328125 C158.92754561 54.25582751 168.95656376 39.19784373 179.01733398 24.16040039 C179.86115883 22.89786186 179.86115883 22.89786186 180.72203064 21.6098175 C181.76107832 20.05531786 182.80108075 18.5014557 183.84230042 16.94841003 C184.31006393 16.24839371 184.77782745 15.54837738 185.25976562 14.82714844 C185.70811768 14.15727905 186.15646973 13.48740967 186.6184082 12.79724121 C188.39282644 10.05909351 190.03248559 7.24445354 191.64978027 4.41094971 C193.91002559 1.51616874 196.31136843 0.84165044 199.875 0.38671875 C203.77629862 0.86442879 205.12433258 2.04921757 207.9375 4.76171875 C209.22593689 7.58534241 209.22593689 7.58534241 210.17553711 10.91040039 C210.54548798 12.17257385 210.91543884 13.43474731 211.29660034 14.73516846 C211.68630132 16.13065733 212.07570605 17.52622895 212.46484375 18.921875 C212.88864926 20.39122377 213.31407507 21.86010602 213.74099731 23.32855225 C214.65676101 26.49074446 215.56141133 29.65582977 216.45755005 32.82363892 C217.89144425 37.89171766 219.34990251 42.95252214 220.81225586 48.01245117 C222.59485335 54.18635677 224.37183761 60.36182129 226.14120197 66.53953266 C230.57711631 82.02623528 235.10063215 97.48690133 239.64031982 112.94345093 C240.77627029 116.81120654 241.91014874 120.67956611 243.04348946 124.54808712 C250.71805726 150.73971692 258.53333309 176.88831018 266.41866779 203.01720715 C268.00615876 208.28046533 269.5802779 213.54765268 271.15079021 218.81599903 C272.38996061 222.96245404 273.65659397 227.09967219 274.9380579 231.23324203 C275.8175378 234.08152007 276.68170544 236.93430702 277.54302025 239.78812408 C277.95436419 241.13857528 278.37227167 242.48704751 278.79723549 243.83327484 C282.47032133 255.48557563 282.47032133 255.48557563 281.4230957 259.94433594 C279.83658848 262.95309409 278.79394881 264.00631323 275.9375 265.76171875 C273.75698185 266.14203548 273.75698185 266.14203548 271.35206604 266.1493988 C269.97894257 266.16425575 269.97894257 266.16425575 268.57807922 266.17941284 C267.58108505 266.17491119 266.58409088 266.17040955 265.55688477 266.16577148 C263.97334702 266.17606636 263.97334702 266.17606636 262.3578186 266.18656921 C258.86471138 266.20488519 255.37205124 266.20099272 251.87890625 266.1953125 C249.4527929 266.199872 247.02668084 266.20517688 244.60057068 266.2111969 C239.5138525 266.22013747 234.42729123 266.21769402 229.34057617 266.20776367 C222.81898458 266.1962734 216.29793437 266.21648221 209.77641392 266.24568081 C204.76556451 266.26401876 199.75484541 266.26375509 194.74397087 266.25804329 C192.3393878 266.25788978 189.93479606 266.26395857 187.53024483 266.27633476 C184.16898675 266.2911968 180.80873612 266.28060184 177.44750977 266.26342773 C176.45253983 266.2730957 175.45756989 266.28276367 174.43244934 266.29272461 C170.18851724 266.24727286 167.61691811 266.15284153 163.88597107 264.0050354 C161.9017198 261.72052423 161.03980418 260.2610364 160.25195312 257.36694336 C159.87617126 256.03754478 159.87617126 256.03754478 159.49279785 254.68128967 C159.23736206 253.70622971 158.98192627 252.73116974 158.71875 251.7265625 C158.28580627 250.16106911 158.28580627 250.16106911 157.84411621 248.56394958 C156.85606943 244.96814467 155.89640472 241.3653985 154.9375 237.76171875 C154.38828703 235.72728407 153.83666845 233.69351114 153.28489685 231.65976906 C150.8460121 222.66707449 148.44800599 213.66365316 146.05718994 204.65808105 C144.2188649 197.73462267 142.37629608 190.81229507 140.53125 183.890625 C140.33466797 183.15277393 140.13808594 182.41492287 139.93554688 181.65471268 C136.38181672 168.32516787 132.70872338 155.03155305 128.9375 141.76171875 C127.9475 141.76171875 126.9575 141.76171875 125.9375 141.76171875 C124.56838168 143.17638433 124.56838168 143.17638433 123.37915039 145.13427734 C122.88811829 145.88117325 122.39708618 146.62806915 121.89117432 147.39759827 C121.36118835 148.2267424 120.83120239 149.05588654 120.28515625 149.91015625 C119.43954132 151.20481056 119.43954132 151.20481056 118.57684326 152.52561951 C116.70851341 155.38999687 114.85456137 158.26341179 113 161.13671875 C111.04330814 164.14260681 109.08284471 167.14601387 107.12236023 170.14942932 C105.76982177 172.22222529 104.41853216 174.29583665 103.06843567 176.370224 C96.04358597 187.15929136 88.90422202 197.87068411 81.75 208.57421875 C80.04653708 211.12558516 78.34342016 213.67718155 76.64073181 216.22906494 C75.57543768 217.82397309 74.50863874 219.41787734 73.44020081 221.01068115 C70.95816889 224.7135172 68.50014016 228.42769231 66.09521484 232.18115234 C65.4231324 233.21969612 65.4231324 233.21969612 64.73747253 234.27922058 C63.90932087 235.5611994 63.08934752 236.84851871 62.27973938 238.14228821 C59.94335748 241.7397935 57.86610358 243.98172425 53.9375 245.76171875 C50.5 245.88671875 50.5 245.88671875 46.9375 244.76171875 C42.38687287 240.51674207 38.89815011 235.04596638 35.375 229.94921875 C34.3211784 228.44080094 33.26646069 226.93300886 32.2109375 225.42578125 C31.40221191 224.26997559 31.40221191 224.26997559 30.57714844 223.09082031 C27.9169303 219.31201134 25.21027576 215.56721432 22.5 211.82421875 C21.96117187 211.07946289 21.42234375 210.33470703 20.8671875 209.56738281 C19.22473876 207.29826167 17.58129576 205.02986424 15.9375 202.76171875 C9.06226075 193.27511266 2.21694498 183.77134267 -4.52124023 174.18676758 C-8.91977244 167.93975677 -13.38871762 161.74476252 -17.875 155.56054688 C-18.65230469 154.48836914 -18.65230469 154.48836914 -19.4453125 153.39453125 C-20.13197998 152.44924561 -20.13197998 152.44924561 -20.83251953 151.48486328 C-21.94062807 149.93245557 -23.00450855 148.34870593 -24.0625 146.76171875 C-25.0525 146.43171875 -26.0425 146.10171875 -27.0625 145.76171875 C-30.83882198 160.84030178 -34.57388013 175.92892233 -38.29785156 191.02050781 C-39.05300587 194.08033388 -39.80922551 197.13989353 -40.56640625 200.19921875 C-41.49587458 203.95488795 -42.42370816 207.7109568 -43.34998322 211.46741486 C-43.714902 212.94716669 -44.08015035 214.42683729 -44.44573212 215.90642548 C-46.29606744 223.40170177 -48.11232471 230.90032656 -49.79785156 238.43457031 C-50.19552231 240.20781174 -50.19552231 240.20781174 -50.60122681 242.01687622 C-51.08190877 244.18067819 -51.55449054 246.34630518 -52.01669312 248.51412964 C-53.50767782 255.24543423 -55.17122351 262.45740276 -59.8125 267.76171875 C-64.66812472 269.91977418 -68.77761089 270.01448382 -73.875 269.01171875 C-76.90492835 267.82351155 -78.11356421 267.24561781 -80.0625 264.76171875 C-81.13957401 258.94825762 -79.68258313 253.18661179 -77.98071289 247.64355469 C-77.75697432 246.87957745 -77.53323574 246.1156002 -77.30271721 245.32847214 C-76.55835591 242.79745444 -75.7968118 240.27195577 -75.03515625 237.74609375 C-74.49749901 235.93045513 -73.96095155 234.11448755 -73.4254303 232.29821777 C-72.2751807 228.40552939 -71.11734408 224.51521133 -69.95343018 220.62658691 C-68.10070964 214.4365511 -66.26471051 208.24163304 -64.43115234 202.04589844 C-61.89489444 193.48061262 -59.35175258 184.91740125 -56.80419922 176.35546875 C-52.00269533 160.21367749 -47.2518328 144.05706408 -42.50580311 127.8988924 C-40.7095622 121.78448647 -38.90813928 115.67162304 -37.10473633 109.55932617 C-32.26338482 93.14224632 -27.45959378 76.71588872 -22.7530632 60.25959396 C-21.3024801 55.19235049 -19.84479002 50.12714471 -18.38760567 45.06179619 C-17.02376891 40.31637322 -15.67350254 35.56736323 -14.33368492 30.81510639 C-13.51387024 27.91878042 -12.68175978 25.02609397 -11.84627914 22.13425255 C-11.46532295 20.80576873 -11.08960215 19.47577008 -10.71966934 18.14417458 C-6.32234679 2.33495762 -6.32234679 2.33495762 0 0 Z " fill="#030304" transform="translate(1598.0625,424.23828125)"/>
<path d="M0 0 C4.12754583 0.94589592 5.68217993 3.34742607 8 6.6875 C10.12810985 10.26689529 12.06463826 13.9385967 14 17.625 C15.15441551 19.79134316 16.31071365 21.95668398 17.46875 24.12109375 C18.05527344 25.2179248 18.64179688 26.31475586 19.24609375 27.44482422 C21.92617115 32.39983369 24.70905723 37.29433821 27.5 42.1875 C32.5638171 51.08531727 37.48131267 60.05410902 42.34033203 69.06518555 C46.69163072 77.13236978 51.11998156 85.15321773 55.58789062 93.15625 C66.79322188 113.24215499 77.90864587 133.37748958 89.01037598 153.52075195 C91.36059236 157.78493912 93.71122414 162.04889693 96.0625 166.3125 C96.55978104 167.21424957 96.55978104 167.21424957 97.06710815 168.13421631 C102.4766187 177.94194781 107.91139326 187.73546741 113.35571289 197.52392578 C116.56857084 203.30294402 119.77516444 209.08531431 122.96875 214.875 C123.30100586 215.47722885 123.63326172 216.0794577 123.97558594 216.69993591 C125.64790118 219.73214558 127.31790325 222.7656001 128.984375 225.80102539 C132.03828794 231.35809251 135.10986485 236.90253757 138.25708008 242.40744019 C139.67277875 244.88423698 141.07982413 247.36590601 142.48681641 249.84765625 C143.47553366 251.58208073 144.47784001 253.30873635 145.48046875 255.03515625 C146.07472656 256.08445312 146.66898437 257.13375 147.28125 258.21484375 C147.80783203 259.12999756 148.33441406 260.04515137 148.87695312 260.98803711 C150.21180545 264.19661584 150.49700982 266.245707 150 269.6875 C147.97735376 272.25079322 146.77335222 273.52954095 143.53557587 274.19086456 C142.14408703 274.19312672 142.14408703 274.19312672 140.7244873 274.19543457 C139.12201393 274.21235352 139.12201393 274.21235352 137.48716736 274.22961426 C135.73684959 274.21746887 135.73684959 274.21746887 133.95117188 274.20507812 C132.71830948 274.2120874 131.48544708 274.21909668 130.21522522 274.22631836 C126.83685719 274.24090828 123.45946892 274.23748779 120.08115578 274.22480202 C116.54493523 274.21467079 113.00875638 274.22406802 109.47253418 274.23034668 C103.53418465 274.23762277 97.59603415 274.22803656 91.65771484 274.20898438 C84.79338681 274.18721548 77.92953401 274.19426689 71.06521749 274.21629 C65.17038961 274.23444526 59.27570475 274.23700178 53.38085794 274.22653532 C49.86067319 274.22030099 46.34071177 274.21946282 42.82054138 274.23268127 C38.89644922 274.24638736 34.97288884 274.22738786 31.04882812 274.20507812 C29.88194962 274.21317505 28.71507111 274.22127197 27.51283264 274.22961426 C26.44451706 274.21833496 25.37620148 274.20705566 24.2755127 274.19543457 C23.34785347 274.19392647 22.42019424 274.19241837 21.46442413 274.19086456 C18.23847561 273.53195681 17.07581913 272.18576911 15 269.6875 C13.49194336 267.20141602 13.49194336 267.20141602 12.08984375 264.44140625 C11.57486328 263.43916016 11.05988281 262.43691406 10.52929688 261.40429688 C10.00400391 260.36337891 9.47871094 259.32246094 8.9375 258.25 C7.88542293 256.18813397 6.83207987 254.12691332 5.77734375 252.06640625 C5.31577881 251.1544751 4.85421387 250.24254395 4.37866211 249.30297852 C3.42442689 247.492686 2.40133019 245.71766364 1.32641602 243.97631836 C0 241.6875 0 241.6875 0 239.6875 C-40.59 239.6875 -81.18 239.6875 -123 239.6875 C-130.425 253.5475 -130.425 253.5475 -138 267.6875 C-144 275.6875 -144 275.6875 -146.3125 277.3125 C-150.36271186 277.87764584 -154.20559428 277.21569877 -158 275.6875 C-160.7417768 271.5748348 -160.76588878 268.51877438 -160 263.6875 C-158.54516003 259.92922333 -156.5997194 256.53303568 -154.5625 253.0625 C-154.01045898 252.08885498 -153.45841797 251.11520996 -152.88964844 250.11206055 C-151.28139898 247.29062349 -149.64720549 244.4863334 -148 241.6875 C-147.60603027 241.01444824 -147.21206055 240.34139648 -146.80615234 239.64794922 C-145.0869763 236.72317987 -143.33758097 233.81770953 -141.5703125 230.921875 C-138.20204361 225.39627761 -134.91979563 219.81959262 -131.625 214.25 C-130.93848493 213.09076716 -130.25187891 211.93158817 -129.56518555 210.77246094 C-126.6059779 205.77735442 -123.64738768 200.78188386 -120.69091797 195.78515625 C-118.31644979 191.7724464 -115.94016761 187.76081487 -113.5625 183.75 C-112.96672653 182.74483337 -112.96672653 182.74483337 -112.35891724 181.71936035 C-106.30752717 171.5151818 -100.16934708 161.3668177 -93.98861694 151.24060059 C-88.9977309 143.05682664 -84.15686508 134.8055177 -79.43994141 126.46142578 C-75.10345587 118.81061583 -70.58825102 111.27372493 -66.04931641 103.74169922 C-60.91609467 95.22243371 -55.82385158 86.67972873 -50.75 78.125 C-50.15499695 77.12187271 -50.15499695 77.12187271 -49.54797363 76.09848022 C-47.92775694 73.36681191 -46.30759639 70.63511037 -44.68771362 67.90324402 C-41.8151792 63.05951032 -38.93787798 58.21863005 -36.05859375 53.37890625 C-34.83698273 51.32464915 -33.61546309 49.27033774 -32.39398193 47.21600342 C-31.59322856 45.86966667 -30.79216523 44.52351421 -29.99078369 43.17755127 C-25.90631561 36.31669624 -21.8436559 29.4459035 -17.87109375 22.51953125 C-17.23469971 21.41351563 -16.59830566 20.3075 -15.94262695 19.16796875 C-14.77130358 17.12645202 -13.60655534 15.08114166 -12.44995117 13.03125 C-5.72354364 1.31164542 -5.72354364 1.31164542 0 0 Z M-59 129.6875 C-59.90786043 131.09488696 -60.76266224 132.53647768 -61.59765625 133.98828125 C-62.14349365 134.93171387 -62.68933105 135.87514648 -63.25170898 136.84716797 C-63.84927002 137.88760254 -64.44683105 138.92803711 -65.0625 140 C-66.34544558 142.21797372 -67.62933465 144.43540191 -68.9140625 146.65234375 C-69.24826706 147.22966248 -69.58247162 147.8069812 -69.92680359 148.40179443 C-73.54869166 154.65073805 -77.243475 160.85599476 -80.9375 167.0625 C-88.15872021 179.21318644 -95.23950413 191.4392068 -102.27392578 203.69873047 C-104.72615455 207.94486691 -107.21773804 212.16773773 -109.71264648 216.38891602 C-111.08144095 218.39382478 -111.08144095 218.39382478 -111 219.6875 C-77.61290219 220.75307582 -44.38775967 220.72013944 -11 219.6875 C-15.85040584 209.94441559 -20.73853879 200.22407851 -25.75 190.5625 C-26.34997803 189.40508301 -26.94995605 188.24766602 -27.56811523 187.05517578 C-31.77546941 178.95963884 -36.10390143 170.93648561 -40.50390625 162.94433594 C-46.53188216 151.96191477 -52.26055682 140.8226904 -58 129.6875 C-58.33 129.6875 -58.66 129.6875 -59 129.6875 Z " fill="#030304" transform="translate(203,416.3125)"/>
<path d="M0 0 C0.96490923 -0.00241442 1.92981846 -0.00482883 2.92396736 -0.00731641 C6.141927 -0.01293083 9.35968614 -0.00430728 12.57763672 0.00431824 C14.89093072 0.00324479 17.20422446 0.00130519 19.51751709 -0.00143433 C25.79013437 -0.00627584 32.06268034 0.00136454 38.335289 0.01151872 C44.90321266 0.02031164 51.47113416 0.01854152 58.0390625 0.01815796 C69.06820837 0.01873979 80.09732807 0.027717 91.12646484 0.04142761 C102.4637095 0.05551386 113.80093006 0.06259832 125.13818359 0.06193542 C125.83648954 0.06189547 126.53479548 0.06185551 127.25426221 0.06181435 C128.29994591 0.06175381 128.29994591 0.06175381 129.36675453 0.06169206 C142.94334836 0.06096642 156.51992879 0.06795961 170.09651947 0.07713866 C174.00593612 0.07926865 177.91535089 0.07997966 181.82476807 0.08037758 C187.97087962 0.0813832 194.11696593 0.08749784 200.26306915 0.09754372 C202.51729426 0.10046081 204.77152228 0.10169569 207.02574921 0.10111618 C210.10540899 0.10062413 213.18499847 0.10629453 216.26464844 0.11352539 C217.5989046 0.11120249 217.5989046 0.11120249 218.96011543 0.10883266 C232.76736937 0.16227405 232.76736937 0.16227405 236.56982422 3.18473816 C239.0649352 6.47828465 239.3796299 8.9676006 239.75341797 13.07926941 C238.96018282 15.84810907 237.69562705 17.51108943 235.40991211 19.25480652 C229.96108249 21.62906875 223.4778583 20.77620653 217.63232422 20.62223816 C216.27557886 20.60567664 214.91880443 20.59134284 213.56201172 20.57926941 C198.74945904 20.40268398 183.93623744 19.76377758 169.13232422 19.24723816 C168.96313759 31.04236118 168.81174387 42.83766509 168.66936874 54.63314056 C168.64476126 56.66021881 168.61982318 58.68729307 168.59454727 60.7143631 C168.24395282 88.85237447 168.0985504 116.98435868 168.19129562 145.12403297 C168.20680774 149.83633571 168.21936377 154.54864361 168.2315979 159.26095581 C168.24000739 162.39448594 168.24861572 165.52801549 168.25732422 168.6615448 C168.25945695 169.43558493 168.26158967 170.20962507 168.26378703 171.00712097 C168.29020803 180.36076925 168.33114456 189.71415784 168.39208382 199.06764585 C168.42990959 205.01110205 168.45375781 210.95451353 168.46720535 216.89807433 C168.47570091 220.37057395 168.49136644 223.84269774 168.52481651 227.31505394 C168.55826631 231.1131111 168.56735988 234.91047882 168.57055664 238.70866394 C168.58650627 239.82784934 168.6024559 240.94703474 168.61888885 242.10013485 C168.61483788 243.12233403 168.6107869 244.14453321 168.60661316 245.19770813 C168.61409214 246.52447162 168.61409214 246.52447162 168.62172222 247.87803841 C167.95654553 251.09819141 166.72532884 252.27592142 164.13232422 254.24723816 C161.94901276 254.75060272 161.94901276 254.75060272 159.54016113 254.75517273 C158.62330032 254.76645203 157.70643951 254.77773132 156.76179504 254.78935242 C155.76322983 254.78125549 154.76466461 254.77315857 153.73583984 254.76481628 C152.67854172 254.77182556 151.62124359 254.77883484 150.53190613 254.78605652 C147.03386237 254.80367452 143.53662634 254.79199964 140.03857422 254.77848816 C137.61006515 254.78118196 135.18155713 254.78506345 132.75305176 254.79008484 C127.66208635 254.79598507 122.57140156 254.78739964 117.48046875 254.76872253 C110.94978754 254.74593316 104.41976383 254.75905337 97.88910675 254.78301239 C92.87399325 254.7974559 87.85903602 254.79287092 82.84391785 254.78250122 C80.43572411 254.77982995 78.02751625 254.78311768 75.61933899 254.79241943 C72.25544569 254.80256074 68.89262208 254.78711643 65.52880859 254.76481628 C64.53024338 254.77291321 63.53167816 254.78101013 62.50285339 254.78935242 C61.58599258 254.77807312 60.66913177 254.76679382 59.7244873 254.75517273 C58.92956627 254.75366463 58.13464523 254.75215652 57.31563568 254.75060272 C54.06617843 254.00143722 53.02241068 253.00845927 51.13232422 250.24723816 C50.5510068 247.1634296 50.61019854 244.12658079 50.65130615 240.99656677 C50.64788845 240.04984848 50.64447075 239.10313018 50.64094949 238.12772346 C50.63434781 234.94752953 50.65638487 231.76817496 50.67822266 228.58805847 C50.67935064 226.31163554 50.67871824 224.03521115 50.67645264 221.75878906 C50.67530264 215.57107986 50.69885844 209.38367937 50.72674847 203.19604206 C50.75171443 196.73247139 50.75410033 190.26889404 50.7588501 183.80528259 C50.76987922 172.95400498 50.79488219 162.10285426 50.83056641 151.25163269 C50.86728291 140.07488065 50.89559641 128.89815943 50.91259766 117.72135925 C50.914174 116.68794163 50.914174 116.68794163 50.91578218 115.63364688 C50.92100234 112.17740915 50.92605717 108.7211712 50.9310298 105.26493311 C50.97249618 76.59229143 51.04324575 47.91976923 51.13232422 19.24723816 C49.18649397 19.35299148 49.18649397 19.35299148 47.20135403 19.46088123 C45.47851267 19.55335881 43.75566839 19.64578191 42.03282166 19.73815918 C41.18030241 19.78463734 40.32778316 19.8311155 39.44942999 19.87900209 C33.00971447 20.22269738 26.58562103 20.40738415 20.13623047 20.41520691 C19.12938705 20.41853531 18.12254364 20.42186371 17.08518982 20.42529297 C15.00284268 20.43027017 12.92048785 20.43270423 10.83813477 20.43254089 C7.6463571 20.43477204 4.45490253 20.45314273 1.26318359 20.47184753 C-0.77913295 20.47477465 -2.82145111 20.476764 -4.86376953 20.47770691 C-6.28549721 20.48848518 -6.28549721 20.48848518 -7.73594666 20.4994812 C-9.05496727 20.49486626 -9.05496727 20.49486626 -10.40063477 20.49015808 C-11.16939438 20.4915831 -11.93815399 20.49300812 -12.73020935 20.49447632 C-15.17554556 20.21162723 -16.770146 19.51849475 -18.86767578 18.24723816 C-21.41362342 14.81020885 -21.23167042 11.39677704 -20.86767578 7.24723816 C-19.86767578 4.43473816 -19.86767578 4.43473816 -17.86767578 2.24723816 C-11.82561413 0.31615532 -6.30847884 -0.03647882 0 0 Z " fill="#030304" transform="translate(366.86767578125,435.7527618408203)"/>
<path d="M0 0 C0.50869629 0.41975098 1.01739258 0.83950195 1.54150391 1.27197266 C15.57409836 12.92058276 28.69653732 29.65137635 32 48 C6.71655842 50.05744493 6.71655842 50.05744493 0.98632812 46.88525391 C-2.18878115 43.59192248 -3.4234352 39.19952215 -5 35 C-7.71390378 31.37978328 -10.80610305 28.19941318 -14 25 C-14.67417969 24.31421875 -15.34835937 23.6284375 -16.04296875 22.921875 C-32.69981424 7.04630744 -55.74038949 -0.38742117 -78 -4 C-78.90363281 -4.15082031 -79.80726563 -4.30164063 -80.73828125 -4.45703125 C-83.17131729 -4.77219136 -85.54722901 -4.91602496 -88 -5 C-88.94866943 -5.03867187 -88.94866943 -5.03867187 -89.91650391 -5.078125 C-123.63163467 -6.29445441 -157.83940955 2.6184412 -183 26 C-189.55394772 32.91857534 -193.62582217 39.25164434 -198 48 C-207.57 48 -217.14 48 -227 48 C-225.51203318 41.3041493 -224.11452186 36.44660466 -220.9375 30.625 C-220.53901855 29.88749512 -220.14053711 29.14999023 -219.72998047 28.39013672 C-216.15922338 21.96614393 -212.0082698 16.38906387 -207 11 C-206.16855469 10.08863281 -205.33710937 9.17726563 -204.48046875 8.23828125 C-153.3530045 -45.43432764 -55.68450642 -47.12862835 0 0 Z " fill="#030304" transform="translate(1184,449)"/>
<path d="M0 0 C0.7425 0.391875 1.485 0.78375 2.25 1.1875 C2.27513383 6.43041656 2.29306006 11.67329637 2.30493164 16.91625977 C2.30989219 18.69165662 2.31666273 20.46704955 2.32543945 22.24243164 C2.36936628 31.37145895 2.33637013 40.47685736 1.8203125 49.59375 C1.78289444 50.27436996 1.74547638 50.95498993 1.70692444 51.65623474 C1.11286405 60.93626975 -0.70203631 69.65885995 -7.75 76.1875 C-20.45858838 84.79158747 -36.94162394 84.57235699 -51.65234375 82.6875 C-59.42344436 81.09156802 -65.43517997 78.50232003 -71.0625 72.875 C-76.08088956 64.88274996 -76.2275118 57.54834765 -76.296875 48.31640625 C-76.31719788 46.99833481 -76.33752075 45.68026337 -76.35845947 44.32225037 C-76.40057238 41.54958088 -76.43333366 38.7770247 -76.45849609 36.00415039 C-76.49096718 32.44390607 -76.54065226 28.88416779 -76.59641647 25.3242197 C-76.64871157 21.9258536 -76.69162476 18.52740667 -76.734375 15.12890625 C-76.7519989 13.84673721 -76.7696228 12.56456818 -76.78778076 11.24354553 C-76.79819397 10.06819748 -76.80860718 8.89284943 -76.81933594 7.68188477 C-76.83027283 6.64234146 -76.84120972 5.60279816 -76.85247803 4.53175354 C-76.75 2.1875 -76.75 2.1875 -75.75 1.1875 C-72.93859849 1.0988874 -70.15120576 1.07220416 -67.33984375 1.08984375 C-66.59383911 1.09085083 -65.84783447 1.09185791 -65.07922363 1.09289551 C-62.28196687 1.09814311 -59.48473196 1.11210427 -56.6875 1.125 C-50.438125 1.145625 -44.18875 1.16625 -37.75 1.1875 C-37.75 25.6075 -37.75 50.0275 -37.75 75.1875 C-21.39936033 73.59251065 -21.39936033 73.59251065 -14.75 69.1875 C-14.09 69.1875 -13.43 69.1875 -12.75 69.1875 C-7.99253476 60.42674574 -7.32126978 50.73783088 -7.37890625 40.96484375 C-7.36155185 38.69335765 -7.34396726 36.42187331 -7.32617188 34.15039062 C-7.31604029 30.61496043 -7.31252165 27.0796337 -7.31420898 23.54418945 C-7.31065686 20.10076459 -7.28341611 16.65812884 -7.25390625 13.21484375 C-7.26208878 12.15240952 -7.2702713 11.08997528 -7.27870178 9.99534607 C-7.26866623 9.01324661 -7.25863068 8.03114716 -7.24829102 7.01928711 C-7.24845718 6.15613388 -7.24862335 5.29298065 -7.24879456 4.40367126 C-6.75 2.1875 -6.75 2.1875 -4.89073181 0.33473206 C-2.75 -0.8125 -2.75 -0.8125 0 0 Z " fill="#030304" transform="translate(1409.75,327.8125)"/>
<path d="M0 0 C8.93985771 8.7411942 13.59539302 20.03970219 14.0625 32.4375 C13.91503802 43.3496866 9.69501319 54.07153869 2.44921875 62.27734375 C-7.3065694 71.05522473 -18.88480331 75.18292625 -31.8671875 75.0234375 C-43.92834656 74.03016558 -53.73683987 68.67187558 -62 60 C-70.68959212 49.46155849 -72.38724619 36.94720809 -71.1875 23.75 C-68.71881344 12.28118758 -61.76370962 2.43006112 -52.1875 -4.25 C-34.00982357 -13.57010637 -16.51792044 -11.65970855 0 0 Z M-31.1875 -2.25 C-31.1875 20.52 -31.1875 43.29 -31.1875 66.75 C-19.12475638 65.65338694 -10.15527335 63.19888226 -1.87890625 54.05859375 C4.6948027 45.08616421 6.10788893 35.66485121 4.8125 24.75 C3.9027873 21.12082701 2.62453662 18.01643443 0.8125 14.75 C0.461875 14.10546875 0.11125 13.4609375 -0.25 12.796875 C-4.6359429 5.79154953 -12.48303069 1.27387788 -20.1875 -1.25 C-23.8175 -1.58 -27.4475 -1.91 -31.1875 -2.25 Z " fill="#030304" transform="translate(1115.1875,495.25)"/>
<path d="M0 0 C2.14266091 2.16259264 2.44736339 3.69445939 2.6796875 6.6953125 C1.5546875 8.5703125 1.5546875 8.5703125 -0.3203125 9.6953125 C-4.78765926 9.57775074 -6.95463448 7.40427286 -10.3203125 4.6953125 C-15.18298041 2.59552408 -20.09481755 2.13657652 -25.3203125 1.6953125 C-23.27473338 7.22672542 -20.79920526 10.81932337 -16.6953125 15.0078125 C-15.61560862 16.14687311 -14.53618403 17.28619851 -13.45703125 18.42578125 C-12.41181139 19.51596361 -11.36625874 20.60582703 -10.3203125 21.6953125 C-1.98361743 30.467411 6.97613823 39.97130156 7.9921875 52.5703125 C7.81605071 58.32778372 6.12192449 62.92342134 2.4921875 67.3828125 C-8.66374284 76.55546634 -19.94453177 78.82528653 -34.3203125 77.6953125 C-42.49827332 76.33984938 -51.95303239 72.234562 -57.3203125 65.6953125 C-57.6328125 62.6328125 -57.6328125 62.6328125 -57.3203125 59.6953125 C-56.3303125 58.7053125 -56.3303125 58.7053125 -55.3203125 57.6953125 C-51.22560396 57.97957326 -49.14362525 59.39277921 -46.1328125 62.0703125 C-40.00006623 67.04805822 -33.26953291 69.32288253 -25.3203125 68.6953125 C-27.24539149 64.50614689 -29.29825165 61.30668932 -32.4453125 57.9453125 C-33.239375 57.08421875 -34.0334375 56.223125 -34.8515625 55.3359375 C-35.66625 54.46453125 -36.4809375 53.593125 -37.3203125 52.6953125 C-57.21543692 31.34121229 -57.21543692 31.34121229 -57.7578125 18.0078125 C-57.39743566 11.39315372 -54.56866045 6.16641978 -50.1796875 1.33203125 C-36.14009426 -11.02635019 -14.86342951 -9.67974235 0 0 Z " fill="#030304" transform="translate(1387.3203125,666.3046875)"/>
<path d="M0 0 C0.72262024 0.00202423 1.44524048 0.00404846 2.1897583 0.00613403 C3.32632622 0.00350555 3.32632622 0.00350555 4.4858551 0.00082397 C7.00314593 -0.00359528 9.52036709 -0.00065601 12.03765869 0.00271606 C13.78021763 0.00204298 15.52277647 0.00107291 17.26533508 -0.00018311 C20.9230946 -0.00166023 24.58082974 0.0004947 28.23858643 0.00515747 C32.9342617 0.01085055 37.62987977 0.00757852 42.32555294 0.00158501 C45.92597385 -0.0020238 49.52638113 -0.00088047 53.12680244 0.0017128 C54.8584144 0.0023814 56.59002758 0.00155596 58.32163811 -0.00076675 C60.73995119 -0.00329803 63.15817094 0.00055425 65.57647705 0.00613403 C66.29707306 0.0041098 67.01766907 0.00208557 67.76010132 0 C72.7192878 0.02126499 72.7192878 0.02126499 74.94781494 1.13552856 C75.13531494 4.01052856 75.13531494 4.01052856 74.94781494 7.13552856 C71.77298049 9.25208486 71.28082489 9.36482005 67.71734619 9.11209106 C66.91490479 9.06052856 66.11246338 9.00896606 65.28570557 8.95584106 C64.45232666 8.89138794 63.61894775 8.82693481 62.76031494 8.76052856 C61.91533447 8.70380981 61.070354 8.64709106 60.19976807 8.58865356 C58.11510278 8.44732032 56.03134628 8.29269607 53.94781494 8.13552856 C53.95003555 9.02280136 53.95225616 9.91007416 53.95454407 10.82423401 C53.97454455 19.16797513 53.98978783 27.51170825 53.99962711 35.8554678 C54.00485555 40.14552771 54.01195247 44.4355679 54.02325439 48.72561646 C54.03408469 52.86232257 54.04009208 56.99900965 54.04269218 61.13572884 C54.04454618 62.7174516 54.0481663 64.29917328 54.053545 65.88088799 C54.06075734 68.08875694 54.0618058 70.29654629 54.06134033 72.50442505 C54.06356094 73.76351181 54.06578156 75.02259857 54.06806946 76.31983948 C53.94781494 79.13552856 53.94781494 79.13552856 52.94781494 80.13552856 C50.22057216 80.23652344 47.51918971 80.27523386 44.79156494 80.26834106 C43.56536438 80.26977615 43.56536438 80.26977615 42.31439209 80.27124023 C40.58266117 80.27192202 38.8509277 80.27006786 37.11920166 80.26589966 C34.45915012 80.26055135 31.79926744 80.26584469 29.13922119 80.27224731 C27.4608354 80.27158653 25.78244971 80.27030537 24.10406494 80.26834106 C23.30303345 80.2703653 22.50200195 80.27238953 21.67669678 80.2744751 C16.06276573 80.25047935 16.06276573 80.25047935 14.94781494 79.13552856 C14.85348509 76.92685026 14.83039063 74.71511335 14.83428955 72.50442505 C14.83414352 71.81177551 14.8339975 71.11912598 14.83384705 70.40548706 C14.8345462 68.10583411 14.84233866 65.8062612 14.85015869 63.50662231 C14.85202286 61.91621444 14.85344677 60.32580599 14.85444641 58.73539734 C14.85827166 54.54156927 14.86810199 50.34777562 14.87915039 46.15396118 C14.88936437 41.87763942 14.893944 37.60131212 14.89898682 33.32498169 C14.90972426 24.92848149 14.92680075 16.5320093 14.94781494 8.13552856 C13.31441162 8.37674438 13.31441162 8.37674438 11.64801025 8.62283325 C8.29250834 9.0877682 5.08173866 9.3334682 1.69781494 9.38552856 C0.17414307 9.42420044 0.17414307 9.42420044 -1.38031006 9.46365356 C-4.05218506 9.13552856 -4.05218506 9.13552856 -5.92718506 7.78396606 C-7.05218506 6.13552856 -7.05218506 6.13552856 -6.80218506 3.51052856 C-5.50862881 -0.5857329 -4.0644167 0.01750327 0 0 Z " fill="#030304" transform="translate(1052.0521850585938,822.8644714355469)"/>
<path d="M0 0 C12.54 0 25.08 0 38 0 C38.33718216 10.66338591 38.66466067 21.32565509 38.94604492 31.99041748 C38.99340217 33.75426079 39.04426868 35.51800916 39.09570312 37.28173828 C39.76743805 61.83881691 39.76743805 61.83881691 31.78125 71.25390625 C22.52493778 80.32752809 11.51695823 82.47269122 -1.12475586 82.35595703 C-10.21037011 82.05620287 -18.81456662 80.24337119 -25.3984375 73.5859375 C-28.02654613 70.62361853 -30.05920207 67.85727151 -31 64 C-30.625 60.1875 -30.625 60.1875 -30 57 C-24.57198444 55.67315175 -24.57198444 55.67315175 -22.25 57 C-21 59 -21 59 -20.125 62.4375 C-18.77197012 66.72209462 -17.85375906 67.75197388 -14 70 C-9.41333136 71.65774247 -4.7272834 72.81817915 0 74 C0 49.58 0 25.16 0 0 Z " fill="#030304" transform="translate(791,329)"/>
<path d="M0 0 C5.39346988 -0.02464849 10.78690725 -0.04283531 16.18041992 -0.05493164 C18.01668875 -0.05997231 19.85295354 -0.06680477 21.68920898 -0.07543945 C24.32276401 -0.08751672 26.95626616 -0.09323081 29.58984375 -0.09765625 C30.41588608 -0.10281754 31.24192841 -0.10797882 32.09300232 -0.11329651 C34.06236368 -0.11349205 36.03161614 -0.06204152 38 0 C39.6939938 1.6939938 39.1258158 3.80292438 39.13552856 6.06329346 C39.13350433 6.78748474 39.1314801 7.51167603 39.12939453 8.2578125 C39.13114685 9.01713074 39.13289917 9.77644897 39.13470459 10.55877686 C39.1391233 13.08087416 39.13618506 15.60290193 39.1328125 18.125 C39.13348553 19.86995456 39.13445555 21.61490904 39.13571167 23.35986328 C39.13718867 27.02181895 39.13503403 30.68375028 39.13037109 34.34570312 C39.1246738 39.05044492 39.1279528 43.75512968 39.13394356 48.45986938 C39.13754912 52.06453891 39.13641061 55.66919482 39.13381577 59.27386475 C39.13314648 61.00909431 39.13397496 62.74432509 39.13629532 64.47955322 C39.13882177 66.90046487 39.13498138 69.32128286 39.12939453 71.7421875 C39.13141876 72.46637878 39.13344299 73.19057007 39.13552856 73.93670654 C39.11426266 78.88573734 39.11426266 78.88573734 38 80 C35.27275721 80.10099488 32.57137477 80.13970529 29.84375 80.1328125 C28.61754944 80.13424759 28.61754944 80.13424759 27.36657715 80.13571167 C25.63484622 80.13639345 23.90311276 80.13453929 22.17138672 80.13037109 C19.51133518 80.12502279 16.8514525 80.13031612 14.19140625 80.13671875 C12.51302046 80.13605797 10.83463477 80.1347768 9.15625 80.1328125 C8.35521851 80.13483673 7.55418701 80.13686096 6.72888184 80.13894653 C1.11495079 80.11495079 1.11495079 80.11495079 0 79 C-0.09500548 76.53555943 -0.12557985 74.09925374 -0.11352539 71.63452148 C-0.11367142 70.86384338 -0.11381744 70.09316528 -0.1139679 69.2991333 C-0.1132686 66.73975861 -0.10547545 64.1804558 -0.09765625 61.62109375 C-0.09579213 59.85132385 -0.0943682 58.08155344 -0.09336853 56.31178284 C-0.08954288 51.64448634 -0.0797122 46.97722077 -0.06866455 42.30993652 C-0.05845144 37.55102965 -0.05387113 32.79211779 -0.04882812 28.03320312 C-0.03808997 18.68878847 -0.02101299 9.3443968 0 0 Z " fill="#030304" transform="translate(791,662)"/>
<path d="M0 0 C5.39346988 -0.02464849 10.78690725 -0.04283531 16.18041992 -0.05493164 C18.01668875 -0.05997231 19.85295354 -0.06680477 21.68920898 -0.07543945 C24.32276401 -0.08751672 26.95626616 -0.09323081 29.58984375 -0.09765625 C30.41588608 -0.10281754 31.24192841 -0.10797882 32.09300232 -0.11329651 C34.06236368 -0.11349205 36.03161614 -0.06204152 38 0 C39.6939938 1.6939938 39.1258158 3.80292438 39.13552856 6.06329346 C39.13350433 6.78748474 39.1314801 7.51167603 39.12939453 8.2578125 C39.13114685 9.01713074 39.13289917 9.77644897 39.13470459 10.55877686 C39.1391233 13.08087416 39.13618506 15.60290193 39.1328125 18.125 C39.13348553 19.86995456 39.13445555 21.61490904 39.13571167 23.35986328 C39.13718867 27.02181895 39.13503403 30.68375028 39.13037109 34.34570312 C39.1246738 39.05044492 39.1279528 43.75512968 39.13394356 48.45986938 C39.13754912 52.06453891 39.13641061 55.66919482 39.13381577 59.27386475 C39.13314648 61.00909431 39.13397496 62.74432509 39.13629532 64.47955322 C39.13882177 66.90046487 39.13498138 69.32128286 39.12939453 71.7421875 C39.13141876 72.46637878 39.13344299 73.19057007 39.13552856 73.93670654 C39.11426266 78.88573734 39.11426266 78.88573734 38 80 C35.27275721 80.10099488 32.57137477 80.13970529 29.84375 80.1328125 C28.61754944 80.13424759 28.61754944 80.13424759 27.36657715 80.13571167 C25.63484622 80.13639345 23.90311276 80.13453929 22.17138672 80.13037109 C19.51133518 80.12502279 16.8514525 80.13031612 14.19140625 80.13671875 C12.51302046 80.13605797 10.83463477 80.1347768 9.15625 80.1328125 C8.35521851 80.13483673 7.55418701 80.13686096 6.72888184 80.13894653 C1.11495079 80.11495079 1.11495079 80.11495079 0 79 C-0.09500548 76.53555943 -0.12557985 74.09925374 -0.11352539 71.63452148 C-0.11367142 70.86384338 -0.11381744 70.09316528 -0.1139679 69.2991333 C-0.1132686 66.73975861 -0.10547545 64.1804558 -0.09765625 61.62109375 C-0.09579213 59.85132385 -0.0943682 58.08155344 -0.09336853 56.31178284 C-0.08954288 51.64448634 -0.0797122 46.97722077 -0.06866455 42.30993652 C-0.05845144 37.55102965 -0.05387113 32.79211779 -0.04882812 28.03320312 C-0.03808997 18.68878847 -0.02101299 9.3443968 0 0 Z " fill="#030304" transform="translate(1067,179)"/>
<path d="M0 0 C2.49119382 0.91658752 4.76274632 2.04106055 7.10839844 3.28540039 C8.04296875 3.7784668 8.97753906 4.2715332 9.94042969 4.77954102 C10.90851563 5.29581055 11.87660156 5.81208008 12.87402344 6.34399414 C13.85757812 6.86413086 14.84113281 7.38426758 15.85449219 7.92016602 C18.2797419 9.20342921 20.70279744 10.4906598 23.12402344 11.78149414 C23.12402344 13.10149414 23.12402344 14.42149414 23.12402344 15.78149414 C4.26849741 24.59970823 -14.60711447 33.37391034 -33.49682617 42.11865234 C-34.32984756 42.50447983 -35.16286896 42.89030731 -36.02113342 43.28782654 C-37.65409332 44.04365783 -39.2874967 44.79853182 -40.92137146 45.55238342 C-44.72446612 47.3092631 -48.51730774 49.08281835 -52.29052734 50.90307617 C-52.97808609 51.23223526 -53.66564484 51.56139435 -54.3740387 51.90052795 C-56.21604412 52.78428687 -58.05410572 53.6762528 -59.8918457 54.56884766 C-62.87597656 55.78149414 -62.87597656 55.78149414 -66.87597656 55.78149414 C-68.33984375 54.25268555 -68.33984375 54.25268555 -69.67285156 52.13305664 C-70.15625 51.37508789 -70.63964844 50.61711914 -71.13769531 49.83618164 C-71.62882813 49.03438477 -72.11996094 48.23258789 -72.62597656 47.40649414 C-73.13257813 46.61243164 -73.63917969 45.81836914 -74.16113281 45.00024414 C-77.87597656 39.09254114 -77.87597656 39.09254114 -77.87597656 36.78149414 C-76.81507813 36.31743164 -75.75417969 35.85336914 -74.66113281 35.37524414 C-53.82429858 26.16971053 -33.38915929 16.0602547 -13.00097656 5.90649414 C-12.19982422 5.50825439 -11.39867187 5.11001465 -10.57324219 4.69970703 C-0.97461769 -0.11351937 -0.97461769 -0.11351937 0 0 Z " fill="#030304" transform="translate(1060.8759765625,596.218505859375)"/>
<path d="M0 0 C0.85432617 0.00848969 1.70865234 0.01697937 2.58886719 0.02572632 C5.28975177 0.05903583 7.98753422 0.13426407 10.6875 0.2109375 C12.52990448 0.2410665 14.37235624 0.26843714 16.21484375 0.29296875 C20.70690543 0.3587523 25.19667878 0.46210971 29.6875 0.5859375 C16.99594133 17.93401485 0.89202949 29.35676689 -18.3125 38.5859375 C-18.93253906 38.89917969 -19.55257813 39.21242188 -20.19140625 39.53515625 C-24.13044025 41.41534311 -26.15778298 41.71030521 -30.3125 40.5859375 C-34.44481869 39.09612017 -38.49325075 37.41271841 -42.54272461 35.71313477 C-43.84901174 35.16940517 -45.15931153 34.63521861 -46.47338867 34.1105957 C-48.3810555 33.34872052 -50.27479936 32.5588303 -52.16796875 31.76171875 C-53.29871826 31.29677002 -54.42946777 30.83182129 -55.59448242 30.3527832 C-58.9757015 28.15482376 -59.46310828 26.44910434 -60.3125 22.5859375 C-59.68496826 22.42101807 -59.05743652 22.25609863 -58.41088867 22.08618164 C-47.23944631 19.10584148 -36.27990343 15.99866515 -25.8125 11.0234375 C-25.06766357 10.67224854 -24.32282715 10.32105957 -23.55541992 9.95922852 C-19.85084906 8.12398672 -16.77679799 6.17380222 -13.63867188 3.47827148 C-9.09968557 0.04461872 -5.56024303 -0.21210981 0 0 Z " fill="#030304" transform="translate(1171.3125,571.4140625)"/>
<path d="M0 0 C5.1551547 -0.22542723 10.30733978 -0.38712474 15.46630859 -0.49438477 C17.21421362 -0.5391658 18.96179118 -0.60021966 20.70849609 -0.67895508 C32.20760669 -1.18364926 39.70116337 -0.26957088 48.9921875 6.74389648 C52.90193032 9.67652095 56.9220963 11.51691254 61.4375 13.3125 C62.22809814 13.63734375 63.01869629 13.9621875 63.83325195 14.296875 C71.06546558 17.18888936 78.40847543 19.2751693 86 21 C81.64126722 25.7891601 76.20728752 28.3901148 70.54711914 31.33813477 C68.69353762 32.30933653 66.85603686 33.30717375 65.01757812 34.30664062 C63.82901331 34.93138044 62.63958624 35.55448311 61.44921875 36.17578125 C60.38018311 36.74208252 59.31114746 37.30838379 58.2097168 37.8918457 C53.6264143 39.47423028 50.14819431 38.8038303 45.66748047 37.12719727 C44.65258545 36.60210571 44.65258545 36.60210571 43.6171875 36.06640625 C42.46464478 35.47170532 42.46464478 35.47170532 41.28881836 34.86499023 C40.4922583 34.43516846 39.69569824 34.00534668 38.875 33.5625 C38.0404126 33.11656494 37.2058252 32.67062988 36.34594727 32.21118164 C28.92666868 28.14424908 22.44023633 23.48385246 16 18 C15.07445312 17.22527344 14.14890625 16.45054687 13.1953125 15.65234375 C8.11300739 11.25622524 3.58845445 6.71818757 0 1 C0 0.67 0 0.34 0 0 Z " fill="#030304" transform="translate(972,572)"/>
<path d="M0 0 C8.13251422 -0.40363582 14.79893562 -0.33930759 21.4375 4.9375 C25.27539579 10.00352244 24.33913508 16.95077655 24 23 C23.52374954 25.48064368 22.8657553 27.61917292 22 30 C22.66 29.67 23.32 29.34 24 29 C24.47597366 26.29400158 24.84093629 23.66404596 25.125 20.9375 C25.21136719 20.17888672 25.29773437 19.42027344 25.38671875 18.63867188 C25.59939517 16.76003014 25.80075459 14.88011364 26 13 C34.64411081 15.62410507 42.76925385 19.31383762 51 23 C48.36940553 27.78454454 45.56448754 32.09942072 42.25 36.4375 C41.83878906 36.97826172 41.42757813 37.51902344 41.00390625 38.07617188 C40.0063214 39.38695197 39.00370323 40.693899 38 42 C32.53943623 39.87404929 27.220363 37.67384446 22 35 C18.30540851 33.7684695 17.45101837 34.40892759 13.9375 35.875 C8.59842765 37.93944131 3.69657482 38.75286009 -2 39 C-0.91475147 36.01556655 0.27868605 33.56455305 2 30.875 C5.28266284 25.21055548 6.79727678 18.26354112 5.375 11.8125 C4.06336786 7.64461628 2.05847423 3.84248523 0 0 Z M21 31 C21 31.66 21 32.32 21 33 C21.66 33 22.32 33 23 33 C23 32.34 23 31.68 23 31 C22.34 31 21.68 31 21 31 Z " fill="#030304" transform="translate(1087,589)"/>
<path d="M0 0 C9.83161949 3.65318738 19.4223138 7.73368792 29 12 C29 16.2331126 28.80119826 16.75678558 26.375 19.890625 C25.56289062 20.95410156 25.56289062 20.95410156 24.734375 22.0390625 C24.16203125 22.76867187 23.5896875 23.49828125 23 24.25 C22.14148437 25.36761719 22.14148437 25.36761719 21.265625 26.5078125 C19.85216196 28.34531445 18.43018342 30.17550183 17 32 C13.12352061 30.39939205 9.24908898 28.79388407 5.375 27.1875 C4.28058594 26.73568359 3.18617187 26.28386719 2.05859375 25.81835938 C0.99511719 25.37685547 -0.06835938 24.93535156 -1.1640625 24.48046875 C-2.13811035 24.07723389 -3.1121582 23.67399902 -4.11572266 23.25854492 C-7.13457978 21.94127656 -10.06671231 20.49708003 -13 19 C-11.68779266 16.22561876 -10.22517631 13.79209828 -8.3984375 11.328125 C-7.90859375 10.66425781 -7.41875 10.00039063 -6.9140625 9.31640625 C-6.40617187 8.63449219 -5.89828125 7.95257812 -5.375 7.25 C-4.859375 6.55261719 -4.34375 5.85523438 -3.8125 5.13671875 C-2.54440881 3.42244733 -1.2725711 1.71094844 0 0 Z " fill="#030304" transform="translate(1142,614)"/>
<path d="M0 0 C3.89132055 1.20687333 7.34521158 2.59269758 10.875 4.625 C11.65617187 5.07101562 12.43734375 5.51703125 13.2421875 5.9765625 C14.11230469 6.48316406 14.11230469 6.48316406 15 7 C13.38766662 11.88442171 10.61835168 15.69664143 7.625 19.8125 C6.90183594 20.85180664 6.90183594 20.85180664 6.1640625 21.91210938 C5.6896875 22.56630859 5.2153125 23.22050781 4.7265625 23.89453125 C4.29939941 24.49112549 3.87223633 25.08771973 3.43212891 25.70239258 C2 27 2 27 -2 27 C-4.11891172 26.07777936 -6.20118744 25.06894568 -8.25 24 C-9.32765625 23.443125 -10.4053125 22.88625 -11.515625 22.3125 C-12.33546875 21.879375 -13.1553125 21.44625 -14 21 C-12.3825067 15.80968922 -9.14487963 11.93227414 -5.875 7.6875 C-5.31167969 6.94693359 -4.74835938 6.20636719 -4.16796875 5.44335938 C-2.78365711 3.62498391 -1.39425774 1.81075326 0 0 Z " fill="#030304" transform="translate(1176,628)"/>
<path d="M0 0 C4.17002499 3.89806683 6.85555522 7.76742553 7.11328125 13.53515625 C7.12379701 16.02739174 7.08704883 18.50943614 7 21 C3.35792507 19.60786668 -0.06832672 17.99205189 -3.51953125 16.1796875 C-4.54111328 15.64472656 -5.56269531 15.10976563 -6.61523438 14.55859375 C-7.67033203 14.00300781 -8.72542969 13.44742188 -9.8125 12.875 C-10.88693359 12.31167969 -11.96136719 11.74835937 -13.06835938 11.16796875 C-15.71338105 9.78080182 -18.35720895 8.3914106 -21 7 C-19.29003906 3.13085938 -19.29003906 3.13085938 -16.6796875 1.953125 C-5.4904745 -0.85197018 -5.4904745 -0.85197018 0 0 Z " fill="#030304" transform="translate(1084,589)"/>
<path d="M0 0 C-0.58019293 3.98972173 -1.82210245 6.76872792 -3.9375 10.1875 C-4.46214844 11.04730469 -4.98679687 11.90710938 -5.52734375 12.79296875 C-7 15 -7 15 -9 17 C-15.04055769 17.26317782 -20.51302024 15.29455517 -26 13 C-24.78143441 9.34430322 -24.03877646 9.19910223 -20.703125 7.51953125 C-19.8265625 7.07802734 -18.95 6.63652344 -18.046875 6.18164062 C-17.12390625 5.72982422 -16.2009375 5.27800781 -15.25 4.8125 C-14.3425 4.34908203 -13.435 3.88566406 -12.5 3.40820312 C-11.61828125 2.97056641 -10.7365625 2.53292969 -9.828125 2.08203125 C-9.0227832 1.68218018 -8.21744141 1.2823291 -7.38769531 0.87036133 C-4.77230742 -0.08299837 -2.76176828 -0.16348539 0 0 Z " fill="#030304" transform="translate(1090,612)"/>
</svg>
