<?xml version="1.0" encoding="UTF-8"?>
<svg version="1.1" xmlns="http://www.w3.org/2000/svg" width="500" height="500">
<path d="M0 0 C19.33099758 18.38658243 29.86608305 43.56591489 38.125 68.4375 C38.35919647 69.14114685 38.59339294 69.8447937 38.83468628 70.56976318 C41.38205163 78.28762193 43.69608208 85.96236285 45 94 C45.88034912 93.7733667 46.76069824 93.5467334 47.66772461 93.31323242 C51.01334221 92.45523034 54.360141 91.60222375 57.70809937 90.75341797 C59.1908902 90.37702175 60.67333534 89.99926093 62.15542603 89.62011719 C70.47564921 87.49612684 78.65966096 85.5958441 87.1875 84.5 C92.02173145 83.87567467 92.02173145 83.87567467 95.8359375 81.19140625 C97.09080223 79.10310624 97.09080223 79.10310624 97.9921875 76.94140625 C99.55675532 73.92749073 101.70480789 72.91454432 104.76171875 71.625 C111.37891892 69.77726522 117.11633659 70.50472928 123.2109375 73.5390625 C125 75 125 75 126.6328125 78.01953125 C130.02545042 82.29111992 133.2851402 82.33779954 138.5 83.0625 C154.47976828 85.77531434 168.21149056 91.53526304 178 105 C184.73422542 117.14496146 185.02690319 132.43380109 181.61694336 145.73583984 C175.40994815 166.62887557 162.84334434 185.41544467 149 202 C148.23598877 202.91845703 148.23598877 202.91845703 147.45654297 203.85546875 C139.76143404 213.05073289 131.6021479 221.65127053 123 230 C126.58741777 234.26611843 130.27883409 238.40656028 134.0625 242.5 C157.61488943 268.14151801 183.95884455 299.24818645 184 336 C183.20728747 347.83303607 178.80963689 357.94547484 170 366 C150.51525783 381.66612435 122.7549209 381.47569812 99.12817383 379.05688477 C81.1299911 376.97474539 63.4136122 372.93036008 46 368 C45.75878418 368.79470703 45.51756836 369.58941406 45.26904297 370.40820312 C44.14298857 374.10710176 43.01056645 377.80401357 41.875 381.5 C41.67191223 382.16249756 41.46882446 382.82499512 41.25958252 383.50756836 C38.49487781 392.50373848 35.5315338 401.34257526 31.8984375 410.03125 C30.68080182 414.05474181 31.26144662 416.47944891 33.0625 420.1875 C34.72795174 425.18385521 35.0642612 430.32792789 33.08984375 435.28515625 C30.4957442 439.74767477 27.69698293 442.69581969 23 445 C21.45894492 445.13232673 19.91718453 445.25656023 18.375 445.375 C11.35966688 446.51262159 8.12341515 452.22177117 3.94140625 457.44140625 C-2.97713434 466.02255933 -12.96565065 473.02605557 -24 475 C-39.26749529 475.97724786 -49.72786608 473.59419405 -62 464 C-62.62648437 463.52691406 -63.25296875 463.05382812 -63.8984375 462.56640625 C-90.92816479 440.97931636 -101.99483663 399.6063577 -111 368 C-111.55647217 368.16081055 -112.11294434 368.32162109 -112.6862793 368.48730469 C-148.06353635 378.62919496 -192.46660038 389.06048925 -227.14453125 371.3984375 C-237.14061059 365.40899461 -243.35162076 357.79216275 -247.08203125 346.81640625 C-252.24197936 325.36419646 -243.6671088 303.72190076 -232.59448242 285.60986328 C-220.16879896 265.78530853 -204.69851701 248.32743885 -188 232 C-189.37461605 228.89637137 -190.9381003 226.84290958 -193.37890625 224.49609375 C-194.04865479 223.84326416 -194.71840332 223.19043457 -195.40844727 222.51782227 C-196.11928467 221.83131592 -196.83012207 221.14480957 -197.5625 220.4375 C-204.55940036 213.56355707 -211.3012287 206.63702903 -216.70703125 198.3984375 C-219.81840474 193.69509117 -219.81840474 193.69509117 -224.66796875 191.140625 C-226.57701056 190.84177365 -228.4932701 190.5854978 -230.4140625 190.375 C-235.19216788 189.68210254 -237.98900612 187.03907704 -241.25 183.6875 C-245.13916602 177.71485218 -245.32713982 172.74629408 -244 166 C-243.62875 165.29875 -243.2575 164.5975 -242.875 163.875 C-240.87032279 159.57926312 -243.51929598 154.1564177 -245 149.9375 C-249.2640633 137.75670152 -250.76658272 121.3163646 -245.3203125 109.28125 C-237.75707485 96.21340744 -227.07216079 89.10797496 -212.66015625 85.0625 C-179.46125157 77.00488953 -143.00428882 83.90327568 -111 94 C-110.77973145 93.25242432 -110.55946289 92.50484863 -110.33251953 91.73461914 C-101.75745087 62.84611662 -92.65798293 32.47843898 -73 9 C-71.90558594 7.66195313 -71.90558594 7.66195313 -70.7890625 6.296875 C-62.27850043 -3.67690651 -51.17444909 -11.70944596 -37.9375 -13.875 C-22.98148634 -14.34979408 -11.38247897 -9.77317413 0 0 Z M-55 11 C-55.56203125 11.46664063 -56.1240625 11.93328125 -56.703125 12.4140625 C-75.75203105 29.77171054 -85.07329474 59.19196427 -92.5625 82.9375 C-92.92150391 84.05753418 -93.28050781 85.17756836 -93.65039062 86.33154297 C-93.97330078 87.38615723 -94.29621094 88.44077148 -94.62890625 89.52734375 C-94.91838135 90.46312256 -95.20785645 91.39890137 -95.50610352 92.36303711 C-96.06684922 95.35691469 -96.09504375 97.14935679 -95 100 C-92.96168369 101.34296022 -92.96168369 101.34296022 -90.3125 102.0703125 C-88.81710693 102.57062988 -88.81710693 102.57062988 -87.29150391 103.08105469 C-86.20530762 103.42555664 -85.11911133 103.77005859 -84 104.125 C-74.6725159 107.27061267 -65.61201216 110.73014113 -56.625 114.75 C-55.12259766 115.42119873 -55.12259766 115.42119873 -53.58984375 116.10595703 C-45.71388033 119.64830039 -45.71388033 119.64830039 -42.00683594 121.47460938 C-40.56099121 122.17553711 -40.56099121 122.17553711 -39.0859375 122.890625 C-38.22790527 123.31891602 -37.36987305 123.74720703 -36.48583984 124.18847656 C-31.54286981 125.80215093 -27.61738172 123.51549985 -23.1171875 121.41015625 C-21.96210693 120.87753174 -20.80702637 120.34490723 -19.61694336 119.79614258 C-19.00688446 119.51316315 -18.39682556 119.23018372 -17.76828003 118.93862915 C-3.90916845 112.52522413 10.11751738 107.00965073 24.52758789 101.9387207 C26.77513669 101.08537567 28.87467625 100.11935996 31 99 C30.43864402 93.37899204 29.37787466 88.36146144 27.59375 83.01171875 C27.23291573 81.90633759 27.23291573 81.90633759 26.86479187 80.77862549 C26.08673093 78.41138704 25.2951845 76.04903775 24.5 73.6875 C24.09583359 72.47938156 24.09583359 72.47938156 23.6835022 71.24685669 C14.98256929 45.34476185 2.93659791 14.94657651 -23 2 C-35.36973255 -2.03360844 -45.68582452 3.10989267 -55 11 Z M-228.3125 110.375 C-234.12797894 117.82261608 -234.98620832 124.475129 -234.28076172 133.89160156 C-233.37775556 140.6727852 -231.05519402 147.88961196 -228 154 C-225.87978313 154.46621089 -225.87978313 154.46621089 -223.375 154.75 C-217.96176687 155.72717389 -214.5397511 157.79654557 -211 162 C-208.86838132 165.31427756 -208.75790931 167.97424702 -208.8125 171.875 C-208.81894531 172.88304687 -208.82539063 173.89109375 -208.83203125 174.9296875 C-209 178 -209 178 -209.82421875 180.984375 C-210.03841515 184.6590333 -208.91869704 186.03467393 -206.53344727 188.7421875 C-206.02740967 189.28101563 -205.52137207 189.81984375 -205 190.375 C-204.48816162 190.94734375 -203.97632324 191.5196875 -203.44897461 192.109375 C-202.43117323 193.24558516 -201.40649676 194.37568019 -200.37451172 195.49902344 C-198.7278699 197.297168 -197.14492569 199.1452866 -195.5625 201 C-192.35162928 204.63950637 -189.08691818 208.23019686 -185.8125 211.8125 C-185.30082275 212.37646484 -184.78914551 212.94042969 -184.26196289 213.52148438 C-181.684604 216.3244096 -179.1541986 218.85454272 -176 221 C-175.57332031 220.62230469 -175.14664063 220.24460937 -174.70703125 219.85546875 C-166.2681672 212.42578844 -157.76589387 205.07369551 -148.875 198.1875 C-148.36114746 197.77056885 -147.84729492 197.3536377 -147.31787109 196.92407227 C-144.05783289 194.34048955 -140.83273204 192.36799254 -137.09765625 190.52734375 C-130.10553663 186.78109261 -124.3172887 183.20362699 -121.84521484 175.31494141 C-120.13409932 167.0136562 -119.83748805 158.47833825 -119.44288635 150.0329895 C-119.04346354 142.09353776 -117.73403509 134.42396059 -116.25 126.625 C-115.81400373 124.30538076 -115.38141384 121.98511718 -114.953125 119.6640625 C-114.76911133 118.70967285 -114.58509766 117.7552832 -114.39550781 116.77197266 C-113.97341548 113.8136786 -113.93281421 110.98426063 -114 108 C-145.59458394 99.70906211 -145.59458394 99.70906211 -178 96 C-178.95648438 95.95875 -179.91296875 95.9175 -180.8984375 95.875 C-197.44079394 95.52020415 -216.52175817 97.45720197 -228.3125 110.375 Z M124.58203125 102.23828125 C121.88471381 105.24196067 118.93020861 106.34033601 115 107 C108.62316307 107.22703909 103.96194893 106.23581006 99 102 C97.97743206 100.68389492 96.97301899 99.35314886 96 98 C80.1205056 99.2082224 64.09210092 102.96929969 49 108 C49.65728971 117.23764932 51.12067063 126.27405782 52.73065186 135.38839722 C54.05812409 142.94402592 55.11879903 150.30296305 55.328125 157.98046875 C55.281527 171.93934354 55.281527 171.93934354 61.91796875 183.53515625 C65.88072224 186.68975153 70.14075654 189.20615144 74.58203125 191.625 C78.10613707 193.62901494 81.181254 196.06447371 84.3125 198.625 C84.86470215 199.06166992 85.4169043 199.49833984 85.98583984 199.94824219 C90.8164499 203.77584451 95.49138473 207.78576943 100.12036133 211.85400391 C103.91857674 215.17024124 107.85922821 218.12082871 112 221 C116.92261649 216.17784507 121.7163141 211.31333318 126.19921875 206.078125 C128.19153636 203.77896455 130.25156625 201.55029146 132.3125 199.3125 C150.37548189 179.20176889 170.11734858 152.785728 169.40234375 124.5859375 C168.42666923 115.89011998 164.10253273 110.15378314 157.45703125 104.6875 C148.21630387 98.3409273 132.24497941 92.27038298 124.58203125 102.23828125 Z M-100 113 C-102.57853932 126.24772395 -105.07795717 139.4865999 -106.8125 152.875 C-106.9360083 153.82383057 -107.0595166 154.77266113 -107.18676758 155.75024414 C-107.69858449 159.87144045 -108.05639545 163.84140858 -108 168 C-101.74126832 164.73803391 -95.69922164 161.22639398 -89.75 157.4375 C-76.51855715 149.03702312 -62.70098721 141.59895582 -49 134 C-52.1602445 131.40173563 -55.33125851 129.86069255 -59.1015625 128.29296875 C-60.30659424 127.79120117 -61.51162598 127.28943359 -62.75317383 126.77246094 C-64.04355659 126.24358896 -65.33416952 125.71527828 -66.625 125.1875 C-67.27262299 124.92054321 -67.92024597 124.65358643 -68.5874939 124.37854004 C-78.9145076 120.12608029 -89.3148923 116.26131801 -100 113 Z M19.625 117.9375 C18.97560455 118.18343903 18.32620911 118.42937805 17.65713501 118.68276978 C6.23186348 123.01931639 -4.94419455 127.78742583 -16 133 C-13.14405521 135.23865496 -10.2397251 137.05797868 -7.0546875 138.79296875 C-6.07201904 139.3334082 -5.08935059 139.87384766 -4.0769043 140.43066406 C-3.02027588 141.01041992 -1.96364746 141.59017578 -0.875 142.1875 C9.83315223 148.11233524 20.28813625 154.36858248 30.67041016 160.84448242 C31.70343262 161.48877197 32.73645508 162.13306152 33.80078125 162.796875 C34.70997314 163.36760742 35.61916504 163.93833984 36.5559082 164.52636719 C38.6664716 165.79890347 40.77749656 166.93879591 43 168 C42.49064031 158.47170276 41.41934245 149.17659234 39.89819336 139.76635742 C39.56011484 137.67272935 39.23154983 135.57776672 38.90429688 133.48242188 C37.81760595 126.59821812 36.61806035 119.78080173 35 113 C29.81377832 113 24.44794276 116.10266288 19.625 117.9375 Z M-46.0625 147.25 C-47.29599926 147.96033888 -48.53138871 148.66740458 -49.76855469 149.37133789 C-52.93299593 151.18532776 -56.06664017 153.04654591 -59.19439697 154.9229126 C-61.96145499 156.57353197 -64.75353004 158.18054439 -67.54296875 159.79296875 C-72.70624191 162.80135704 -77.79488547 165.91559758 -82.86523438 169.07763672 C-86.16479091 171.10105636 -89.50848437 173.03562955 -92.859375 174.97265625 C-95.07459118 176.31233919 -97.28818684 177.65470611 -99.5 179 C-101.05992676 179.86902954 -101.05992676 179.86902954 -102.65136719 180.75561523 C-106.64617791 183.26202369 -109.44964783 185.20099937 -110.86279297 189.8203125 C-111.13589785 193.0396822 -111.1680204 196.18260139 -111.0645752 199.41064453 C-110.98975642 202.41074999 -111.019872 205.40154647 -111.05761719 208.40234375 C-111.12972472 214.63131653 -111.14054975 220.85855222 -111.13037109 227.08789062 C-111.12501246 230.99092493 -111.13034125 234.89384419 -111.13671875 238.796875 C-111.14098814 244.84412264 -111.10278121 250.88967141 -111.0295105 256.9364624 C-111.00378469 259.60710484 -111.01135056 262.27518056 -111.02563477 264.94580078 C-111.05859738 271.26729417 -111.05859738 271.26729417 -108.68164062 276.97558594 C-106.78128796 278.63919794 -104.93342174 279.72230796 -102.6875 280.875 C-101.89988281 281.33729004 -101.11226562 281.79958008 -100.30078125 282.27587891 C-98.53314253 283.31114299 -96.75276356 284.3248603 -94.96240234 285.3203125 C-91.74872145 287.14247539 -88.62020043 289.07202336 -85.48828125 291.03125 C-70.0132481 300.69306768 -54.19827124 309.60217987 -38 318 C-37.33806641 318.40549072 -36.67613281 318.81098145 -35.99414062 319.22875977 C-32.56283809 320.55582694 -29.9281732 319.40188742 -26.67016602 317.99121094 C-25.87280029 317.57645508 -25.07543457 317.16169922 -24.25390625 316.734375 C-23.34568115 316.26338379 -22.43745605 315.79239258 -21.50170898 315.30712891 C-20.04680054 314.5363501 -20.04680054 314.5363501 -18.5625 313.75 C-17.54551025 313.2142334 -16.52852051 312.6784668 -15.48071289 312.12646484 C2.06913329 302.79094991 19.18247622 292.49972681 35.71826172 281.46484375 C38 280 38 280 40.14501953 278.94140625 C42.28713716 277.78733017 43.48267754 276.91167661 45 275 C45.57497958 272.30377679 45.57497958 272.30377679 45.67504883 269.21679688 C45.73991989 268.05031616 45.80479095 266.88383545 45.87162781 265.68200684 C46.08154365 259.66114231 46.1425814 253.64924923 46.1328125 247.625 C46.13348909 246.28466779 46.13446204 244.9443357 46.13571167 243.60400391 C46.13717199 240.81737073 46.13508845 238.03076998 46.13037109 235.24414062 C46.12467485 231.71124692 46.12796289 228.17842926 46.13394356 224.64553833 C46.13759463 221.88451589 46.13638996 219.12351082 46.13381577 216.36248779 C46.13284485 214.4390864 46.13582756 212.51568427 46.13894653 210.59228516 C46.1296542 207.05965339 46.07994776 203.53170821 46 200 C45.97667099 198.80125244 45.95334198 197.60250488 45.92930603 196.36743164 C45.87923904 195.21364014 45.82917206 194.05984863 45.77758789 192.87109375 C45.7390419 191.8442749 45.70049591 190.81745605 45.66078186 189.75952148 C44.55324955 185.13430492 41.36218502 183.28178927 37.49755859 180.82910156 C36.44648926 180.22549805 35.39541992 179.62189453 34.3125 179 C33.23049316 178.33194336 32.14848633 177.66388672 31.03369141 176.97558594 C27.7132856 174.940077 24.36057377 172.96828611 21 171 C19.09288768 169.84209905 17.18781388 168.6808314 15.28515625 167.515625 C3.58962496 160.41510354 -8.35043271 153.61387281 -20.51782227 147.35253906 C-23 146 -23 146 -25.40209961 144.32714844 C-33.46792862 139.12716433 -38.50506369 142.66304373 -46.0625 147.25 Z M-129.24609375 200.5625 C-129.91342529 201.10793457 -130.58075684 201.65336914 -131.26831055 202.21533203 C-131.98414307 202.80427246 -132.69997559 203.39321289 -133.4375 204 C-134.91119026 205.2060568 -136.3851478 206.41178709 -137.859375 207.6171875 C-138.57544922 208.20338867 -139.29152344 208.78958984 -140.02929688 209.39355469 C-142.398846 211.32512471 -144.79030796 213.22788445 -147.1875 215.125 C-153.2395545 219.94595281 -159.11287252 224.98025494 -165 230 C-163.42395214 234.21270653 -160.29226983 236.63715733 -156.9375 239.4375 C-156.32914307 239.95248047 -155.72078613 240.46746094 -155.09399414 240.99804688 C-148.17758384 246.79120496 -140.98784167 252.23109422 -133.77294922 257.64453125 C-132.19553521 258.85050792 -130.65888465 260.10938521 -129.12890625 261.375 C-127.1814049 263.20224869 -127.1814049 263.20224869 -125 263 C-125 241.55 -125 220.1 -125 198 C-126.77391244 198 -127.92116193 199.47486675 -129.24609375 200.5625 Z M60 198 C60 219.45 60 240.9 60 263 C74.7948585 255.60257075 87.46539776 242.66138664 100 232 C98.3851355 227.54040732 94.94868833 225.03674097 91.4375 222.0625 C90.78144775 221.50054932 90.12539551 220.93859863 89.44946289 220.35961914 C80.03725992 212.38300697 70.26482383 204.84321589 60 198 Z M-177 241 C-182.18436588 246.090484 -187.3278276 251.17474619 -192.04296875 256.70703125 C-193.56870167 258.49466643 -195.11319249 260.25672776 -196.67578125 262.01171875 C-214.44095294 282.11858304 -235.14484648 308.71695504 -234.34375 336.85546875 C-233.53740117 344.23172797 -230.78318007 350.42880347 -225.20703125 355.40625 C-204.27469522 370.52199 -174.91009873 366.85249678 -151 363 C-138.5253523 360.59752618 -126.23501438 357.39970347 -114 354 C-114.67842375 344.56452163 -116.15093498 335.29333558 -117.7286377 325.97348022 C-119.01390905 318.34998188 -120.10644283 310.87358447 -120.3984375 303.140625 C-120.4513423 289.87100001 -120.4513423 289.87100001 -126.54296875 278.6875 C-130.06382199 275.74524569 -133.85496496 273.41063456 -137.86865234 271.20263672 C-140.88467197 269.50081396 -143.50893379 267.49226265 -146.25 265.375 C-147.1884375 264.67375 -148.126875 263.9725 -149.09375 263.25 C-156.78176858 257.29798561 -164.13065549 250.88543854 -171.31640625 244.33984375 C-173.11401242 242.90926621 -174.91551657 241.95329767 -177 241 Z M111 241 C103.29988643 247.21392278 103.29988643 247.21392278 95.875 253.75 C92.41096323 256.86207581 88.81642398 259.74922433 85.12036133 262.57739258 C83.65119776 263.70313239 82.19147888 264.8412945 80.7409668 265.9909668 C77.11173151 268.82786218 73.65637887 271.26756315 69.484375 273.23828125 C64.6118707 275.73449933 60.7822336 278.16125218 58 283 C55.38869822 292.38684829 55.08308053 302.22739612 54.51994324 311.91110229 C54.02717838 319.87409723 52.72320014 327.60506131 51.25 335.4375 C50.8152263 337.76906979 50.38272543 340.10106523 49.953125 342.43359375 C49.76911133 343.39322021 49.58509766 344.35284668 49.39550781 345.34155273 C49.00910046 347.93883028 48.92744263 350.37871615 49 353 C77.6626893 364.51993254 119.49002076 372.49677538 149.41796875 361.1953125 C158.19113689 357.13390637 164.60806331 352.00343711 168.3671875 342.90258789 C172.81691189 329.52423056 166.6787555 314.31769895 160.796875 302.421875 C149.18139477 280.09729029 130.76337709 256.72086814 111 241 Z M-108 294 C-107.49984971 304.35194781 -106.15874665 314.43045248 -104.47094727 324.64453125 C-104.05759452 327.15479062 -103.65818086 329.66701869 -103.25976562 332.1796875 C-102.99821721 333.78919619 -102.73587713 335.39857648 -102.47265625 337.0078125 C-102.3548732 337.75257843 -102.23709015 338.49734436 -102.11573792 339.26467896 C-101.5191968 342.81737271 -100.87789235 345.8966049 -99 349 C-81.97192223 343.11987643 -65.48561781 336.23352234 -49 329 C-51.90662009 325.90444149 -55.17879522 324.25301 -58.9375 322.375 C-67.34615061 318.05294605 -75.43009363 313.22763215 -83.5 308.3125 C-84.10141815 307.94719177 -84.7028363 307.58188354 -85.32247925 307.20550537 C-91.75668148 303.29298228 -98.13354809 299.33219525 -104.31054688 295.02026367 C-105.95640138 293.8276835 -105.95640138 293.8276835 -108 294 Z M34.875 298.125 C18.63653409 309.19475028 1.22157891 318.56292267 -16 328 C-11.51562188 330.98958542 -6.61086776 332.95507533 -1.6875 335.125 C-0.0314978 335.85553589 -0.0314978 335.85553589 1.65795898 336.60083008 C12.26848732 341.22026132 23.06348731 345.22725687 34 349 C35.90136908 345.67762886 36.57736021 342.58879974 37.21875 338.828125 C37.42798096 337.61326416 37.63721191 336.39840332 37.8527832 335.14672852 C38.06636475 333.86080811 38.27994629 332.5748877 38.5 331.25 C38.72281446 329.92959162 38.94571505 328.60919776 39.16870117 327.28881836 C42.09268468 310.73831324 42.09268468 310.73831324 43 294 C39.74465948 294 37.46866465 296.31567499 34.875 298.125 Z M-39.6171875 339.45703125 C-40.76840088 339.98772217 -41.91961426 340.51841309 -43.10571289 341.06518555 C-43.71980011 341.35017914 -44.33388733 341.63517273 -44.96658325 341.92880249 C-59.51106521 348.66366399 -74.28633366 354.48555675 -89.34399414 359.96948242 C-91.6482288 360.86351445 -93.81559026 361.84855085 -96 363 C-94.71707036 371.89092061 -92.20026246 380.2008626 -89.3125 388.6875 C-89.0893512 389.34919189 -88.86620239 390.01088379 -88.6362915 390.69262695 C-80.26624055 415.46229049 -68.3964337 446.39860483 -43.5625 459.0625 C-36.37230598 461.98319941 -29.54913016 462.3168205 -22.3125 459.375 C-14.76424598 455.5403255 -8.76123982 450.1251076 -3 444 C-1.9790625 443.071875 -1.9790625 443.071875 -0.9375 442.125 C0.45956437 438.95832075 -0.58173 436.56875294 -1.4375 433.30078125 C-2.94850209 427.12036297 -1.9769121 422.54321564 1 417 C5.75608911 411.36778921 9.9298807 410.12810707 17 409 C23.40106246 391.74094244 23.40106246 391.74094244 29.125 374.25 C29.33664795 373.57912354 29.5482959 372.90824707 29.76635742 372.21704102 C30.87645111 368.4317634 31.39787681 365.7252048 30 362 C27.34342895 360.39561953 27.34342895 360.39561953 23.921875 359.34375 C23.29099472 359.11947327 22.66011444 358.89519653 22.01011658 358.66412354 C20.6435125 358.17943038 19.27379161 357.70345664 17.90145874 357.23522949 C14.25272101 355.98832685 10.62810443 354.67562027 7.00390625 353.359375 C5.88729362 352.95528412 5.88729362 352.95528412 4.74812317 352.54302979 C-4.399298 349.18785499 -13.21764903 345.12209306 -22.04589844 341.01367188 C-23.18188477 340.48837891 -24.31787109 339.96308594 -25.48828125 339.421875 C-26.48384033 338.95362305 -27.47939941 338.48537109 -28.50512695 338.00292969 C-32.99184439 336.19928596 -35.42905 337.49797789 -39.6171875 339.45703125 Z " fill="#030304" transform="translate(281,20)"/>
<path d="M0 0 C21.42892772 -1.15336487 21.42892772 -1.15336487 28.73046875 4.3984375 C33.95071873 8.08226278 40.66479067 10 47 10 C48.92063129 9.66800516 50.8371336 9.31164874 52.75 8.9375 C63.99572729 7.00378348 63.99572729 7.00378348 68.76953125 10.17578125 C72.19362739 11.44107772 74.91071941 10.13247461 78.1875 8.9375 C78.85152832 8.70579102 79.51555664 8.47408203 80.19970703 8.23535156 C88.73342591 5.20752447 88.73342591 5.20752447 96 0 C97.56172745 -0.08685603 99.12729344 -0.10702219 100.69140625 -0.09765625 C101.63564453 -0.09443359 102.57988281 -0.09121094 103.55273438 -0.08789062 C104.54595703 -0.07951172 105.53917969 -0.07113281 106.5625 -0.0625 C107.55958984 -0.05798828 108.55667969 -0.05347656 109.58398438 -0.04882812 C112.05604849 -0.03700007 114.52799518 -0.02051849 117 0 C110.5908966 10.3257777 100.93889982 16.13190322 90 21 C92.5652659 22.71017726 94.87960965 23.90417811 97.6875 25.125 C98.89986328 25.65480469 98.89986328 25.65480469 100.13671875 26.1953125 C100.75160156 26.46085937 101.36648438 26.72640625 102 27 C101.39305845 30.15330554 100.3583335 32.18888867 98.4375 34.75 C97.98246094 35.36359375 97.52742188 35.9771875 97.05859375 36.609375 C96.53458984 37.29773438 96.53458984 37.29773438 96 38 C90.31497465 36.35433477 85.23318364 33.70967216 80 31 C81.00911458 29.2421875 82.01822917 27.484375 83.02734375 25.7265625 C83.71719051 24.50201525 84.37144538 23.25710923 85 22 C83.02 24.64 81.04 27.28 79 30 C76.23144975 29.51143231 73.89615362 28.95411439 71.3125 27.8125 C67.22103054 26.80893202 64.50058104 27.54296929 60.45703125 28.4765625 C56.07142589 29.41085681 52.38895867 29.60363766 48.25073242 27.80517578 C43.98995291 26.74982086 41.50001696 27.99987906 37.73828125 29.8671875 C37.06580856 30.18076202 36.39333588 30.49433655 35.70048523 30.81741333 C33.56198194 31.81839372 31.43726968 32.84523171 29.3125 33.875 C27.17504174 34.89265414 25.03512713 35.9046947 22.89237976 36.91116333 C21.5621309 37.53791953 20.23531183 38.1720192 18.91242981 38.81417847 C16.07058371 40.16995083 14.19293753 41 11 41 C9.61328125 39.3203125 9.61328125 39.3203125 8.3125 37.125 C7.87550781 36.40570313 7.43851563 35.68640625 6.98828125 34.9453125 C6 33 6 33 6 31 C12.93 27.7 19.86 24.4 27 21 C25.081875 20.030625 23.16375 19.06125 21.1875 18.0625 C12.86662615 13.68303715 4.54333938 8.46308316 0 0 Z M61 14 C61 15.98 61 17.96 61 20 C61.33 20 61.66 20 62 20 C62 18.02 62 16.04 62 14 C61.67 14 61.34 14 61 14 Z M71 14 C71 16.31 71 18.62 71 21 C71.33 21 71.66 21 72 21 C72 18.69 72 16.38 72 14 C71.67 14 71.34 14 71 14 Z " fill="#030304" transform="translate(190,269)"/>
<path d="M0 0 C2.46855858 2.15905652 4.76230074 4.38773413 7.0234375 6.76171875 C8.02310547 7.7671875 8.02310547 7.7671875 9.04296875 8.79296875 C13.73103998 13.76725907 18.0234375 19.69817431 18.0234375 26.76171875 C12.87078727 27.35855082 8.15947417 27.62925655 3.0234375 26.76171875 C0.50311581 24.53169589 -0.75914386 22.3657134 -2.38671875 19.43359375 C-7.99766979 10.00388733 -20.39432166 5.28837194 -30.45703125 2.33984375 C-47.47663031 -1.56542859 -66.73249804 0.27923492 -81.7890625 9.48046875 C-88.50852456 14.08183951 -94.287827 19.38424775 -97.9765625 26.76171875 C-102.9265625 26.76171875 -107.8765625 26.76171875 -112.9765625 26.76171875 C-111.00331053 14.92220694 -102.83062402 5.87392103 -93.37890625 -1.17578125 C-66.03106081 -19.43391116 -26.69738774 -20.07559472 0 0 Z " fill="#030304" transform="translate(295.9765625,204.23828125)"/>
<path d="M0 0 C3.14581423 -0.02888514 6.29159469 -0.04675923 9.4375 -0.0625 C10.33533203 -0.07087891 11.23316406 -0.07925781 12.15820312 -0.08789062 C13.01220703 -0.09111328 13.86621094 -0.09433594 14.74609375 -0.09765625 C15.93223267 -0.10551147 15.93223267 -0.10551147 17.14233398 -0.11352539 C19 0 19 0 20 1 C20.08858646 3.73894085 20.11523479 6.4525327 20.09765625 9.19140625 C20.0962413 10.01124496 20.09482635 10.83108368 20.09336853 11.67576599 C20.08775289 14.30471382 20.07519779 16.93357773 20.0625 19.5625 C20.05748701 21.34049357 20.05292376 23.11848846 20.04882812 24.89648438 C20.03777839 29.26435545 20.02050331 33.63216348 20 38 C21.44956856 37.71531708 22.89712409 37.42037094 24.34375 37.12109375 C25.15005859 36.95794678 25.95636719 36.7947998 26.78710938 36.62670898 C29.75868497 35.78513412 31.19827415 34.47737304 33 32 C34.1007076 28.6978772 34.20627072 26.05916721 34.31640625 22.58203125 C34.37924805 20.70161133 34.37924805 20.70161133 34.44335938 18.78320312 C34.48267578 17.47287109 34.52199219 16.16253906 34.5625 14.8125 C34.60570992 13.47720022 34.649325 12.14191348 34.69335938 10.80664062 C34.79956502 7.53786703 34.90160997 4.26901667 35 1 C36.65 0.67 38.3 0.34 40 0 C40.05848483 4.33327584 40.09375916 8.66644885 40.125 13 C40.14175781 14.22074219 40.15851563 15.44148437 40.17578125 16.69921875 C40.21685486 24.29783651 40.20848852 31.02472066 36.4375 37.8125 C30.87571583 42.80384477 23.97072462 43.51294662 16.71484375 43.2890625 C11.3198021 42.71462641 6.7607183 41.40857464 2.5 38 C-0.43984199 34.08021068 -0.13181331 30.16286594 -0.09765625 25.48828125 C-0.0962413 24.76005661 -0.09482635 24.03183197 -0.09336853 23.28153992 C-0.08777659 20.95848461 -0.07522562 18.63552612 -0.0625 16.3125 C-0.05748396 14.73632952 -0.05292123 13.16015752 -0.04882812 11.58398438 C-0.0378098 7.72261902 -0.02055074 3.86132592 0 0 Z " fill="#030304" transform="translate(374,145)"/>
<path d="M0 0 C5.52013044 3.08039076 8.60528998 6.87836995 10.625 12.9375 C11.25606462 20.49993008 11.64723759 27.81621319 6.625 33.9375 C0.12039313 39.90550953 -5.14212966 41.43403423 -13.94140625 41.3359375 C-20.33503808 40.59401435 -24.90102738 37.77529212 -29.1015625 32.95703125 C-32.99149412 26.99174505 -33.37858683 20.8773976 -32.375 13.9375 C-30.61251046 7.74805143 -26.7145571 3.4231984 -21.375 -0.0625 C-14.32781802 -3.40245107 -7.07213637 -3.21364642 0 0 Z M-11.375 1.9375 C-11.375 13.4875 -11.375 25.0375 -11.375 36.9375 C-2.2821626 34.91686947 -0.64847523 34.38007352 4.375 27.5625 C6.60042682 22.88910368 7.15497246 18.8237998 5.625 13.875 C3.7252398 9.44795699 0.83631899 6.27794984 -3.375 3.9375 C-6.015 3.2775 -8.655 2.6175 -11.375 1.9375 Z " fill="#030304" transform="translate(259.375,227.0625)"/>
<path d="M0 0 C1.93622341 1.60034792 2.16238441 2.82701362 2.53125 5.265625 C0.34375 5.953125 0.34375 5.953125 -2.46875 6.265625 C-5.03125 4.890625 -5.03125 4.890625 -7.46875 3.265625 C-9.66005534 2.56983046 -9.66005534 2.56983046 -11.46875 2.265625 C-9.25058068 6.29335349 -6.6198558 9.42695338 -3.46875 12.765625 C4.94536704 21.68058234 4.94536704 21.68058234 5.03125 27.703125 C4.91879745 31.07670144 4.38624355 33.05239238 2.28125 35.703125 C-3.25081118 40.85800019 -9.03692315 41.51153104 -16.46875 41.265625 C-21.03006661 40.08283678 -25.10667833 38.62769667 -28.46875 35.265625 C-28.59375 32.640625 -28.59375 32.640625 -28.46875 30.265625 C-25.68783285 30.65186349 -23.84675866 30.97581836 -21.59375 32.703125 C-18.75508797 34.79037649 -15.85804895 35.41830026 -12.46875 36.265625 C-15.52662151 31.21348946 -19.28363433 27.10460001 -23.34765625 22.828125 C-27.09678804 18.29878714 -29.14426868 14.09046964 -28.875 8.22265625 C-28.14146447 4.68898988 -26.22660212 2.41433988 -23.46875 0.265625 C-15.73161576 -4.19163711 -7.82810041 -3.9140502 0 0 Z " fill="#030304" transform="translate(400.46875,315.734375)"/>
<path d="M0 0 C13.53 0 27.06 0 41 0 C41.495 1.98 41.495 1.98 42 4 C41.67 4.33 41.34 4.66 41 5 C37.7 5 34.4 5 31 5 C31 16.88 31 28.76 31 41 C24.4 41 17.8 41 11 41 C11 29.12 11 17.24 11 5 C7.37 5 3.74 5 0 5 C-0.33 4.01 -0.66 3.02 -1 2 C-0.67 1.34 -0.34 0.68 0 0 Z " fill="#030304" transform="translate(228,396)"/>
<path d="M0 0 C6.27 0 12.54 0 19 0 C20.36468386 5.45873546 20.22435721 10.70634405 20.25 16.3125 C20.270625 17.42818359 20.29125 18.54386719 20.3125 19.69335938 C20.34954735 27.50571944 19.73511699 32.58110376 14.75 38.8125 C9.2534513 43.18475465 2.79606003 43.74733306 -4 43 C-8.33834914 42.01888924 -11.25811895 40.704787 -14.5 37.625 C-16.13105532 34.77065318 -16.36901725 33.22890093 -16 30 C-14.68 29.67 -13.36 29.34 -12 29 C-10.92578125 30.7578125 -9.8515625 32.515625 -8.77734375 34.2734375 C-6.52678061 36.73199099 -6.52678061 36.73199099 0 38 C0 25.46 0 12.92 0 0 Z " fill="#030304" transform="translate(99,145)"/>
<path d="M0 0 C6.27 0 12.54 0 19 0 C20 1 20 1 20.11352539 4.78540039 C20.11336622 6.47282729 20.10766917 8.16025905 20.09765625 9.84765625 C20.0962413 10.7340831 20.09482635 11.62050995 20.09336853 12.53379822 C20.08775215 15.37673254 20.07519691 18.21958931 20.0625 21.0625 C20.05748711 22.98502491 20.05292384 24.90755104 20.04882812 26.83007812 C20.03862648 31.55343964 20.01905437 36.27663258 20 41 C13.4 41 6.8 41 0 41 C0 27.47 0 13.94 0 0 Z " fill="#030304" transform="translate(99,314)"/>
<path d="M0 0 C6.6 0 13.2 0 20 0 C20.02290685 5.67835397 20.04283457 11.35654881 20.05493164 17.03491211 C20.05997256 18.96818585 20.06680519 20.90145576 20.07543945 22.8347168 C20.08751565 25.60726872 20.09323057 28.37977041 20.09765625 31.15234375 C20.10281754 32.02213364 20.10797882 32.89192352 20.11329651 33.78807068 C20.11349185 35.85905814 20.06208168 37.92994324 20 40 C19.67 40.33 19.34 40.66 19 41 C12.73 41 6.46 41 0 41 C0 27.47 0 13.94 0 0 Z " fill="#030304" transform="translate(239,70)"/>
<path d="M0 0 C2.64 1.32 5.28 2.64 8 4 C6.55311454 6.89377093 5.24918136 9.18533078 3.375 11.75 C2.92898438 12.36359375 2.48296875 12.9771875 2.0234375 13.609375 C1.51683594 14.29773438 1.51683594 14.29773438 1 15 C0.236875 14.690625 -0.52625 14.38125 -1.3125 14.0625 C-3.18789677 13.32106407 -5.08684652 12.63771783 -7 12 C-6.38801624 8.56049636 -5.07941153 6.48435515 -2.9375 3.75 C-2.38964844 3.04359375 -1.84179688 2.3371875 -1.27734375 1.609375 C-0.85582031 1.07828125 -0.43429687 0.5471875 0 0 Z " fill="#030304" transform="translate(294,297)"/>
</svg>
